<?xml version="1.0" standalone="no"?>
<!DOCTYPE svg PUBLIC "-//W3C//DTD SVG 20010904//EN"
 "http://www.w3.org/TR/2001/REC-SVG-20010904/DTD/svg10.dtd">
<svg version="1.0" xmlns="http://www.w3.org/2000/svg"
 width="174.000000pt" height="62.000000pt" viewBox="0 0 174.000000 62.000000"
 preserveAspectRatio="xMidYMid meet">

<g transform="translate(0.000000,62.000000) scale(0.100000,-0.100000)"
fill="#000000" stroke="none">
<path d="M240 385 c13 -14 26 -25 28 -25 3 0 -5 11 -18 25 -13 14 -26 25 -28
25 -3 0 5 -11 18 -25z"/>
<path d="M1158 378 c7 -7 12 -39 12 -75 0 -35 4 -63 10 -63 6 0 10 13 10 28 0
27 15 52 32 52 4 0 8 -18 8 -40 0 -29 4 -40 15 -40 11 0 15 11 15 38 0 50 -12
66 -44 60 -23 -5 -26 -2 -26 23 0 23 -4 29 -22 29 -17 0 -19 -3 -10 -12z"/>
<path d="M1573 363 c-13 -40 -4 -123 13 -123 10 0 14 12 14 40 0 33 3 40 19
40 16 0 20 -8 23 -37 2 -31 7 -39 26 -41 12 -2 22 1 22 7 0 6 -4 11 -10 11
-14 0 -13 57 2 62 7 3 5 12 -8 26 -23 27 -30 28 -37 2 -3 -13 -10 -18 -21 -14
-17 7 -22 34 -6 34 6 0 10 5 10 10 0 23 -38 9 -47 -17z"/>
<path d="M674 364 c3 -9 6 -40 6 -70 0 -40 4 -54 14 -54 11 0 16 14 18 48 l3
47 30 -47 c17 -28 38 -48 48 -48 15 0 17 10 17 70 0 54 -3 70 -14 70 -11 0
-16 -14 -18 -47 l-3 -48 -30 47 c-22 35 -36 48 -54 48 -17 0 -22 -4 -17 -16z"/>
<path d="M1340 360 c-11 -20 3 -42 45 -66 25 -14 10 -37 -20 -30 -27 7 -43 -9
-19 -18 31 -12 63 -6 74 13 13 26 6 43 -31 63 -17 10 -27 22 -24 28 8 13 35
13 35 0 0 -5 7 -10 15 -10 18 0 19 12 3 28 -19 19 -66 15 -78 -8z"/>
<path d="M852 331 c-7 -4 -12 -12 -11 -17 1 -5 -1 -17 -5 -26 -15 -34 0 -48
49 -46 45 1 45 1 45 38 0 20 -5 41 -12 48 -14 14 -47 16 -66 3z m48 -21 c0
-13 -11 -13 -30 0 -12 8 -11 10 8 10 12 0 22 -4 22 -10z m0 -40 c0 -5 -9 -10
-19 -10 -11 0 -23 5 -26 10 -4 6 5 10 19 10 14 0 26 -4 26 -10z"/>
<path d="M961 327 c-16 -16 -14 -62 4 -77 8 -7 24 -10 35 -7 16 4 20 0 20 -19
0 -15 6 -24 15 -24 12 0 15 14 15 68 l0 68 -39 1 c-21 1 -43 -3 -50 -10z m54
-38 c0 -17 -6 -24 -20 -24 -23 0 -33 34 -13 46 20 13 33 5 33 -22z"/>
<path d="M1077 334 c-15 -16 -6 -41 21 -54 l27 -14 -27 -4 c-39 -5 -35 -24 5
-20 24 2 33 8 35 25 3 17 -3 24 -22 29 -14 3 -26 11 -26 16 0 6 11 7 26 4 19
-5 25 -3 22 6 -5 14 -50 23 -61 12z"/>
<path d="M1456 318 c-21 -29 -20 -41 2 -61 24 -22 55 -21 75 1 22 24 21 45 -1
65 -26 23 -58 21 -76 -5z m59 -28 c0 -16 -6 -26 -18 -28 -19 -4 -32 20 -23 44
9 25 41 13 41 -16z"/>
<path d="M513 175 c0 -27 2 -38 4 -22 2 15 2 37 0 50 -2 12 -4 0 -4 -28z"/>
<path d="M423 123 c15 -2 37 -2 50 0 12 2 0 4 -28 4 -27 0 -38 -2 -22 -4z"/>
</g>
</svg>
