<svg xmlns="http://www.w3.org/2000/svg" width="32" height="32" fill="none" xmlns:v="https://vecta.io/nano"><circle cx="16" cy="16" r="14" fill="url(#A)"/><path d="M22.987 10.209c.125-.805-.641-1.441-1.357-1.127L7.365 15.345a.64.64 0 0 0 .057 1.173l2.942.937c.562.179 1.169.086 1.66-.252l6.632-4.582c.2-.138.418.146.247.322l-4.774 4.922c-.463.477-.371 1.287.186 1.636l5.345 3.352c.6.376 1.371-.002 1.483-.726l1.845-11.917z" fill="#fff"/><defs><linearGradient id="A" x1="16" y1="2" x2="16" y2="30" gradientUnits="userSpaceOnUse"><stop stop-color="#37bbfe"/><stop offset="1" stop-color="#007dbb"/></linearGradient></defs></svg>