<svg xmlns="http://www.w3.org/2000/svg" width="32" height="32" fill="none" xmlns:v="https://vecta.io/nano"><rect x="2" y="2" width="28" height="28" rx="6" fill="url(#A)"/><rect x="2" y="2" width="28" height="28" rx="6" fill="url(#B)"/><rect x="2" y="2" width="28" height="28" rx="6" fill="url(#C)"/><g fill="#fff"><path d="M23 10.5a1.5 1.5 0 1 1-3 0 1.5 1.5 0 1 1 3 0z"/><path d="M16 21a5 5 0 1 0 0-10 5 5 0 1 0 0 10zm0-2a3 3 0 1 0 0-6 3 3 0 1 0 0 6zM6 15.6c0-3.36 0-5.04.654-6.324a6 6 0 0 1 2.622-2.622C10.56 6 12.24 6 15.6 6h.8c3.36 0 5.041 0 6.324.654a6 6 0 0 1 2.622 2.622C26 10.56 26 12.24 26 15.6v.8c0 3.36 0 5.041-.654 6.324a6 6 0 0 1-2.622 2.622C21.441 26 19.76 26 16.4 26h-.8c-3.36 0-5.04 0-6.324-.654a6 6 0 0 1-2.622-2.622C6 21.441 6 19.76 6 16.4v-.8zM15.6 8h.8l3.778.075c.877.072 1.325.201 1.638.361a4 4 0 0 1 1.748 1.748c.159.313.289.761.361 1.638.073.9.075 2.065.075 3.778v.8l-.075 3.778c-.072.877-.201 1.325-.361 1.638a4 4 0 0 1-1.748 1.748c-.313.159-.761.289-1.638.361-.9.073-2.065.075-3.778.075h-.8c-1.713 0-2.878-.002-3.778-.075-.877-.072-1.325-.201-1.638-.361a4 4 0 0 1-1.748-1.748c-.159-.313-.289-.761-.361-1.638C8.002 19.278 8 18.113 8 16.4v-.8l.075-3.778c.072-.877.201-1.325.361-1.638a4 4 0 0 1 1.748-1.748c.313-.159.761-.289 1.638-.361.9-.074 2.065-.075 3.778-.075z" fill-rule="evenodd"/></g><defs><radialGradient id="A" cx="0" cy="0" r="1" gradientUnits="userSpaceOnUse" gradientTransform="translate(12 23) rotate(-55.3758) scale(25.5196)"><stop stop-color="#b13589"/><stop offset=".793" stop-color="#c62f94"/><stop offset="1" stop-color="#8a3ac8"/></radialGradient><radialGradient id="B" cx="0" cy="0" r="1" gradientUnits="userSpaceOnUse" gradientTransform="translate(11 31) rotate(-65.1363) scale(22.5942)"><stop stop-color="#e0e8b7"/><stop offset=".445" stop-color="#fb8a2e"/><stop offset=".715" stop-color="#e2425c"/><stop offset="1" stop-color="#e2425c" stop-opacity="0"/></radialGradient><radialGradient id="C" cx="0" cy="0" r="1" gradientUnits="userSpaceOnUse" gradientTransform="translate(0.500002 3) rotate(-8.1301) scale(38.8909 8.31836)"><stop offset=".157" stop-color="#406adc"/><stop offset=".468" stop-color="#6a45be"/><stop offset="1" stop-color="#6a45be" stop-opacity="0"/></radialGradient></defs></svg>