<svg xmlns="http://www.w3.org/2000/svg" width="232" height="82.667" viewBox="0 0 174 62" preserveAspectRatio="xMidYMid meet" xmlns:v="https://vecta.io/nano"><path d="M24 23.5c1.3 1.4 2.6 2.5 2.8 2.5.3 0-.5-1.1-1.8-2.5S22.4 21 22.2 21c-.3 0 .5 1.1 1.8 2.5zm91.8.7c.7.7 1.2 3.9 1.2 7.5 0 3.5.4 6.3 1 6.3s1-1.3 1-2.8c0-2.7 1.5-5.2 3.2-5.2.4 0 .8 1.8.8 4 0 2.9.4 4 1.5 4s1.5-1.1 1.5-3.8c0-5-1.2-6.6-4.4-6-2.3.5-2.6.2-2.6-2.3 0-2.3-.4-2.9-2.2-2.9-1.7 0-1.9.3-1 1.2zm41.5 1.5c-1.3 4-.4 12.3 1.3 12.3 1 0 1.4-1.2 1.4-4 0-3.3.3-4 1.9-4s2 .8 2.3 3.7c.2 3.1.7 3.9 2.6 4.1 1.2.2 2.2-.1 2.2-.7s-.4-1.1-1-1.1c-1.4 0-1.3-5.7.2-6.2.7-.3.5-1.2-.8-2.6-2.3-2.7-3-2.8-3.7-.2-.3 1.3-1 1.8-2.1 1.4-1.7-.7-2.2-3.4-.6-3.4.6 0 1-.5 1-1 0-2.3-3.8-.9-4.7 1.7zm-89.9-.1c.3.9.6 4 .6 7 0 4 .4 5.4 1.4 5.4 1.1 0 1.6-1.4 1.8-4.8l.3-4.7 3 4.7c1.7 2.8 3.8 4.8 4.8 4.8 1.5 0 1.7-1 1.7-7 0-5.4-.3-7-1.4-7s-1.6 1.4-1.8 4.7l-.3 4.8-3-4.7c-2.2-3.5-3.6-4.8-5.4-4.8-1.7 0-2.2.4-1.7 1.6zm66.6.4c-1.1 2 .3 4.2 4.5 6.6 2.5 1.4 1 3.7-2 3-2.7-.7-4.3.9-1.9 1.8 3.1 1.2 6.3.6 7.4-1.3 1.3-2.6.6-4.3-3.1-6.3-1.7-1-2.7-2.2-2.4-2.8.8-1.3 3.5-1.3 3.5 0 0 .5.7 1 1.5 1 1.8 0 1.9-1.2.3-2.8-1.9-1.9-6.6-1.5-7.8.8zm-48.8 2.9c-.7.4-1.2 1.2-1.1 1.7s-.1 1.7-.5 2.6c-1.5 3.4 0 4.8 4.9 4.6 4.5-.1 4.5-.1 4.5-3.8 0-2-.5-4.1-1.2-4.8-1.4-1.4-4.7-1.6-6.6-.3zM90 31c0 1.3-1.1 1.3-3 0-1.2-.8-1.1-1 .8-1 1.2 0 2.2.4 2.2 1zm0 4c0 .5-.9 1-1.9 1-1.1 0-2.3-.5-2.6-1-.4-.6.5-1 1.9-1s2.6.4 2.6 1zm6.1-5.7c-1.6 1.6-1.4 6.2.4 7.7.8.7 2.4 1 3.5.7 1.6-.4 2 0 2 1.9 0 1.5.6 2.4 1.5 2.4 1.2 0 1.5-1.4 1.5-6.8v-6.8l-3.9-.1c-2.1-.1-4.3.3-5 1zm5.4 3.8c0 1.7-.6 2.4-2 2.4-2.3 0-3.3-3.4-1.3-4.6 2-1.3 3.3-.5 3.3 2.2zm6.2-4.5c-1.5 1.6-.6 4.1 2.1 5.4l2.7 1.4-2.7.4c-3.9.5-3.5 2.4.5 2 2.4-.2 3.3-.8 3.5-2.5.3-1.7-.3-2.4-2.2-2.9-1.4-.3-2.6-1.1-2.6-1.6 0-.6 1.1-.7 2.6-.4 1.9.5 2.5.3 2.2-.6-.5-1.4-5-2.3-6.1-1.2zm37.9 1.6c-2.1 2.9-2 4.1.2 6.1 2.4 2.2 5.5 2.1 7.5-.1 2.2-2.4 2.1-4.5-.1-6.5-2.6-2.3-5.8-2.1-7.6.5zm5.9 2.8c0 1.6-.6 2.6-1.8 2.8-1.9.4-3.2-2-2.3-4.4.9-2.5 4.1-1.3 4.1 1.6zM51.3 44.5c0 2.7.2 3.8.4 2.2.2-1.5.2-3.7 0-5-.2-1.2-.4 0-.4 2.8zm-9 5.2c1.5.2 3.7.2 5 0 1.2-.2 0-.4-2.8-.4-2.7 0-3.8.2-2.2.4z"/></svg>