<svg xmlns="http://www.w3.org/2000/svg" xmlns:xlink="http://www.w3.org/1999/xlink" width="80" height="80" fill="none" xmlns:v="https://vecta.io/nano"><g clip-path="url(#A)"><path d="M72.816 10.488H7.536a1.8 1.8 0 0 0-1.8 1.8v55.416a1.8 1.8 0 0 0 1.8 1.8h65.28a1.8 1.8 0 0 0 1.8-1.8V12.288a1.8 1.8 0 0 0-1.8-1.8z" fill="#fff"/><path d="M72.8 70.712H7.544c-.797-.002-1.561-.32-2.125-.883s-.881-1.328-.883-2.125V12.296c.002-.797.32-1.561.883-2.125s1.328-.881 2.125-.883H72.8a3.01 3.01 0 0 1 3 3.008v55.408a3.01 3.01 0 0 1-3 3.008h0zM7.544 11.688a.61.61 0 0 0-.608.608v55.408a.61.61 0 0 0 .608.608H72.8a.61.61 0 0 0 .6-.608V12.296a.61.61 0 0 0-.6-.608H7.544z" fill="#009cae"/><g fill="#ff8a00"><use xlink:href="#B"/><path d="M17.696 16.992c.808 0 1.464-.655 1.464-1.464s-.655-1.464-1.464-1.464-1.464.655-1.464 1.464.655 1.464 1.464 1.464zm4.984 0c.808 0 1.464-.655 1.464-1.464s-.655-1.464-1.464-1.464-1.464.655-1.464 1.464.656 1.464 1.464 1.464zm44.848-.264h-13.6a1.2 1.2 0 0 1 0-2.4h13.6a1.2 1.2 0 0 1 0 2.4z"/></g><path d="M74.616 18.84H5.736v2.4h68.88v-2.4z" fill="#009cae"/><path d="M69.536 24.472H10.728a.72.72 0 0 0-.72.72v7.264a.72.72 0 0 0 .72.72h58.808a.72.72 0 0 0 .72-.72v-7.264a.72.72 0 0 0-.72-.72z" fill="#fff"/><path d="M69.536 33.968H10.728a1.52 1.52 0 0 1-1.52-1.52v-7.256a1.52 1.52 0 0 1 1.52-1.52h58.808a1.53 1.53 0 0 1 1.52 1.52v7.256a1.53 1.53 0 0 1-1.52 1.52zm-58.728-1.6h58.648v-7.096H10.808v7.096z" fill="#009cae"/><path d="M69.528 38.208H48.12a.72.72 0 0 0-.72.72v25.84a.72.72 0 0 0 .72.72h21.408a.72.72 0 0 0 .72-.72v-25.84a.72.72 0 0 0-.72-.72z" fill="#fff"/><path d="M69.536 66.288H48.128A1.53 1.53 0 0 1 46.6 64.8V38.928a1.53 1.53 0 0 1 1.528-1.52h21.408a1.53 1.53 0 0 1 1.52 1.52V64.8a1.53 1.53 0 0 1-1.52 1.488h0zm-21.336-1.6h21.256v-25.68H48.2v25.68z" fill="#009cae"/><path d="M41.288 58.832H19.88a.72.72 0 0 0-.72.72v3.856a.72.72 0 0 0 .72.72h21.408a.72.72 0 0 0 .72-.72v-3.856a.72.72 0 0 0-.72-.72z" fill="#fff"/><path d="M41.296 64.92H19.88a1.53 1.53 0 0 1-1.52-1.52v-3.848a1.53 1.53 0 0 1 1.52-1.52h21.416a1.53 1.53 0 0 1 1.52 1.52V63.4a1.53 1.53 0 0 1-1.52 1.52zM20 63.32h21.216v-3.688H20v3.688z" fill="#009cae"/><g fill="#ff8a00"><path d="M42.016 42.104h-13.6a1.2 1.2 0 0 1-1.2-1.2 1.2 1.2 0 0 1 1.2-1.2h13.6a1.2 1.2 0 0 1 1.2 1.2 1.2 1.2 0 0 1-1.2 1.2h0z"/><use xlink:href="#C"/><path d="M42.016 50.528H13.808a.8.8 0 0 1 0-1.6h28.208a.8.8 0 0 1 0 1.6zm0 3.56h-20.8a.8.8 0 0 1 0-1.6h20.8a.8.8 0 0 1 0 1.6z"/></g><g fill="#009cae"><path d="M68.799 38.048l-20.9 26.237 1.252.997 20.9-26.237-1.252-.997z"/><path d="M48.618 38.447l-1.236 1.016 21.393 26.044 1.236-1.016-21.393-26.044zm21.659-13.615L9.285 31.965l.093.795 60.992-7.133-.093-.795z"/><path d="M9.375 24.85l-.093.795 60.995 7.111.093-.795L9.375 24.85z"/></g></g><defs><clipPath id="A"><path fill="#fff" d="M0 0h80v80H0z"/></clipPath><path id="B" d="M12.704 16.992c.808 0 1.464-.655 1.464-1.464s-.655-1.464-1.464-1.464-1.464.655-1.464 1.464.655 1.464 1.464 1.464z"/><path id="C" d="M42.016 46.864H13.808a.8.8 0 0 1-.8-.8.8.8 0 0 1 .8-.8h28.208a.8.8 0 0 1 .8.8.8.8 0 0 1-.8.8z"/></defs></svg>