<svg xmlns="http://www.w3.org/2000/svg" xmlns:xlink="http://www.w3.org/1999/xlink" width="70" height="70" fill="none" xmlns:v="https://vecta.io/nano"><path d="M50.099 44.345c2.481 2.303 4.469 5.086 5.844 8.179s2.109 6.433 2.157 9.818a2.56 2.56 0 0 1-.401 1.373c-.261.41-.634.738-1.075.944a2.56 2.56 0 0 1-2.725-.35L44.1 56" fill="#fff"/><path d="M55.496 65.982a3.59 3.59 0 0 1-2.345-.882L43.4 56.763l1.4-1.596 9.716 8.344c.22.192.49.316.779.357a1.51 1.51 0 0 0 1.493-.688 1.51 1.51 0 0 0 .234-.824 23.95 23.95 0 0 0-7.644-17.241l1.4-1.54A26.03 26.03 0 0 1 59.122 62.3c.009.696-.184 1.38-.557 1.968s-.909 1.055-1.543 1.343c-.476.231-.997.358-1.526.371z" fill="#ff8a00"/><path d="M18.9 44.345c-3.327 3.124-5.746 7.092-7 11.48a24.81 24.81 0 0 0-.945 6.517 2.56 2.56 0 0 0 .401 1.373c.261.41.634.738 1.075.944a2.56 2.56 0 0 0 2.725-.35L24.913 56" fill="#fff"/><path d="M13.531 65.982c-.535 0-1.063-.117-1.547-.343a3.57 3.57 0 0 1-2.1-3.311c.044-3.526.803-7.007 2.233-10.23a26.03 26.03 0 0 1 6.083-8.523l1.435 1.54c-3.205 2.983-5.533 6.786-6.734 10.997a23.75 23.75 0 0 0-.91 6.244 1.51 1.51 0 0 0 .878 1.382 1.51 1.51 0 0 0 1.621-.227l9.737-8.344 1.4 1.596-9.751 8.337a3.59 3.59 0 0 1-2.345.882z" fill="#ff8a00"/><path d="M42.532 56H26.495a6.61 6.61 0 0 1-6.545-5.74l-.973-7.504A49.49 49.49 0 0 1 27.09 8.183l.77-1.085 2.667-3.647A4.9 4.9 0 0 1 34.514 1.4 4.9 4.9 0 0 1 38.5 3.451l2.667 3.647.77 1.085c6.882 10.127 9.772 22.442 8.113 34.573l-.98 7.469c-.2 1.594-.974 3.06-2.178 4.123s-2.754 1.651-4.36 1.652z" fill="#fff"/><path d="M42.532 57.015H26.495a7.66 7.66 0 0 1-7.595-6.657l-.98-7.469a50.45 50.45 0 0 1 8.309-35.308l.784-1.106 2.66-3.675A5.99 5.99 0 0 1 34.51.345 5.99 5.99 0 0 1 39.347 2.8L42 6.475l.784 1.106A50.45 50.45 0 0 1 51.1 42.889l-.98 7.469a7.66 7.66 0 0 1-7.588 6.657zM34.51 2.471c-.612-.004-1.216.14-1.762.417s-1.017.682-1.374 1.179L28.7 7.7l-.756 1.064c-6.749 9.911-9.573 21.976-7.924 33.852l.98 7.469a5.56 5.56 0 0 0 5.502 4.83h16.03a5.6 5.6 0 0 0 5.502-4.83L49 42.616a48.34 48.34 0 0 0-7.931-33.838l-.749-1.064-2.667-3.647a3.85 3.85 0 0 0-3.143-1.596z" fill="#009cae"/><g fill="#ff8a00"><path d="M34.51 34.657c-1.867 0-3.692-.553-5.245-1.59a9.44 9.44 0 0 1-3.478-4.236c-.715-1.725-.903-3.623-.54-5.454s1.261-3.514 2.581-4.835a9.44 9.44 0 0 1 10.286-2.055c1.726.713 3.202 1.921 4.241 3.472s1.595 3.375 1.598 5.242c0 2.506-.994 4.909-2.765 6.682a9.46 9.46 0 0 1-6.678 2.775zm0-16.8a7.34 7.34 0 0 0-6.783 4.534c-.556 1.342-.701 2.818-.418 4.243a7.34 7.34 0 0 0 2.01 3.76c1.027 1.027 2.335 1.726 3.76 2.01s2.901.138 4.243-.418a7.34 7.34 0 0 0 3.295-2.704 7.35 7.35 0 0 0 1.238-4.08c-.004-1.945-.779-3.809-2.156-5.183s-3.242-2.146-5.187-2.146v-.014zm0 48.888a1.05 1.05 0 0 1-1.05-1.05v-6.79a1.05 1.05 0 0 1 2.1 0v6.79a1.05 1.05 0 0 1-1.05 1.05z"/><use xlink:href="#B"/><use xlink:href="#B" x="9.8"/></g><defs ><path id="B" d="M29.61 69.363a1.05 1.05 0 0 1-1.05-1.05V62.3a1.05 1.05 0 0 1 1.05-1.05 1.05 1.05 0 0 1 1.05 1.05v6.034a1.05 1.05 0 0 1-1.05 1.029z"/></defs></svg>