<svg xmlns="http://www.w3.org/2000/svg" xmlns:xlink="http://www.w3.org/1999/xlink" width="70" height="70" fill="none" xmlns:v="https://vecta.io/nano"><g clip-path="url(#A)"><path d="M61.348 7.42H8.75a7.56 7.56 0 0 0-7.56 7.56v29.512a7.56 7.56 0 0 0 7.56 7.56h52.598a7.56 7.56 0 0 0 7.56-7.56V14.98a7.56 7.56 0 0 0-7.56-7.56z" fill="#fff"/><g fill="#009cae"><path d="M61.348 53.102H8.75c-2.283-.002-4.472-.91-6.086-2.524S.142 46.775.14 44.492V14.98a8.61 8.61 0 0 1 8.61-8.61h52.598a8.61 8.61 0 0 1 8.603 8.61v29.512c-.002 2.282-.909 4.47-2.521 6.084s-3.8 2.523-6.082 2.526zM8.75 8.47c-1.726.002-3.381.688-4.601 1.909S2.242 13.254 2.24 14.98v29.512c.002 1.726.688 3.381 1.909 4.601S7.024 51 8.75 51.002h52.598c1.725-.004 3.378-.691 4.597-1.911s1.904-2.874 1.906-4.599V14.98c-.002-1.725-.687-3.379-1.906-4.599s-2.872-1.908-4.597-1.911H8.75z"/><path d="M69.643 43.841h-1.477a4.6 4.6 0 0 1-4.599 4.592H6.524a4.59 4.59 0 0 1-4.592-4.592H.448c.003.491.064.98.182 1.456H.448c.002 1.611.643 3.155 1.782 4.294s2.683 1.78 4.294 1.782h57.043c1.611-.002 3.155-.643 4.294-1.782s1.78-2.683 1.782-4.294h-.182c.121-.476.182-.965.182-1.456z"/></g><path d="M43.981 61.306l-3.276-8.19a1.56 1.56 0 0 0-1.4-1.064H30.8a1.56 1.56 0 0 0-1.4 1.064l-3.269 8.19c-.504 1.26.252 2.716 1.4 2.716h15.043c1.148 0 1.904-1.456 1.407-2.716z" fill="#fff"/><path d="M42.574 65.1H27.517c-.418-.001-.829-.107-1.196-.307s-.678-.49-.904-.841c-.291-.448-.469-.959-.518-1.491s.033-1.068.238-1.561l3.276-8.19a2.61 2.61 0 0 1 2.387-1.708h8.498c.525.015 1.033.188 1.457.496s.746.738.922 1.233l3.276 8.169a3.26 3.26 0 0 1-.308 3.003c-.217.358-.52.655-.882.864s-.771.324-1.19.333zM30.8 53.102c-.161 0-.336.161-.434.406l-3.276 8.19a1.15 1.15 0 0 0 .091 1.043.46.46 0 0 0 .141.154c.058.04.125.066.195.077h15.057c.071-.008.138-.033.197-.074s.106-.094.139-.157a1.15 1.15 0 0 0 .091-1.043l-3.269-8.19c-.098-.245-.273-.406-.434-.406H30.8z" fill="#009cae"/><g fill="#ff8a00"><path d="M49.609 29.064a6.45 6.45 0 0 1-5.973-3.975c-.49-1.179-.62-2.477-.373-3.73a6.45 6.45 0 0 1 1.763-3.308c.902-.904 2.052-1.52 3.304-1.77s2.551-.123 3.731.365 2.189 1.315 2.899 2.377 1.089 2.31 1.089 3.587c0 1.709-.678 3.349-1.885 4.559a6.45 6.45 0 0 1-4.555 1.895zm0-10.808a4.35 4.35 0 0 0-2.423.727 4.36 4.36 0 0 0-1.61 1.951c-.332.795-.42 1.671-.254 2.517a4.35 4.35 0 0 0 1.188 2.233c.608.61 1.384 1.026 2.229 1.195s1.721.084 2.517-.245a4.35 4.35 0 0 0 1.956-1.604c.479-.717.735-1.559.735-2.42a4.35 4.35 0 0 0-1.268-3.076c-.403-.404-.882-.725-1.409-.944s-1.092-.333-1.663-.334zm8.862 22.799H40.754c-.445-.002-.871-.179-1.186-.494s-.492-.741-.494-1.186V39.2c-.002-1.221.237-2.43.702-3.559a9.29 9.29 0 0 1 2.011-3.019c.862-.865 1.886-1.551 3.013-2.02s2.336-.711 3.556-.713h2.513c1.221.002 2.429.244 3.556.713s2.151 1.155 3.013 2.02 1.545 1.89 2.011 3.019.704 2.338.702 3.559v.203c-.009.44-.19.859-.504 1.168s-.736.482-1.176.484zm-17.297-2.1h16.877a7.2 7.2 0 0 0-2.183-4.935 7.19 7.19 0 0 0-4.999-2.03h-2.513a7.2 7.2 0 0 0-4.999 2.03c-1.34 1.299-2.123 3.069-2.183 4.935z"/><use xlink:href="#B"/><path d="M30.912 28.098H10.311a1.05 1.05 0 1 1 0-2.1h20.601a1.05 1.05 0 1 1 0 2.1zm0 4.102H10.311a1.05 1.05 0 1 1 0-2.1h20.601a1.05 1.05 0 1 1 0 2.1zm0 4.319H16.863a1.05 1.05 0 1 1 0-2.1h14.049a1.05 1.05 0 1 1 0 2.1z"/></g></g><defs><clipPath id="A"><path fill="#fff" d="M0 0h70v70H0z"/></clipPath><path id="B" d="M30.912 23.8H10.311a1.05 1.05 0 0 1-1.05-1.05 1.05 1.05 0 0 1 1.05-1.05h20.601a1.05 1.05 0 0 1 1.05 1.05 1.05 1.05 0 0 1-1.05 1.05z"/></defs></svg>