<svg xmlns="http://www.w3.org/2000/svg" width="80" height="80" fill="none" xmlns:v="https://vecta.io/nano"><g clip-path="url(#A)"><path d="M42.795 47.03l4.09-4.09a1.4 1.4 0 0 1 1.957.023l19.375 19.375c.399.399.715.872.931 1.394s.327 1.08.327 1.644-.111 1.123-.327 1.644-.532.995-.931 1.394c-.806.806-1.898 1.258-3.038 1.258s-2.232-.453-3.038-1.258L42.767 49.038a1.4 1.4 0 0 1-.41-1.01 1.4 1.4 0 0 1 .439-.998z" fill="#fff"/><path d="M65.208 70.84a5.45 5.45 0 0 1-3.888-1.6L41.944 49.856a2.6 2.6 0 0 1-.763-1.84 2.6 2.6 0 0 1 .763-1.84l4.096-4.088a2.6 2.6 0 0 1 1.84-.763 2.6 2.6 0 0 1 1.84.763l19.376 19.376c1.029 1.031 1.608 2.428 1.608 3.884s-.578 2.853-1.608 3.884a5.46 5.46 0 0 1-1.783 1.193c-.667.276-1.383.417-2.105.415zM47.88 43.728a.19.19 0 0 0-.078.013c-.025.01-.047.024-.066.043l-4.096 4.088c-.035.04-.055.091-.055.144s.02.104.055.144l19.376 19.376a3.2 3.2 0 0 0 4.376 0 3.08 3.08 0 0 0 .912-2.188 3.08 3.08 0 0 0-.912-2.188L48 43.784c-.033-.031-.075-.051-.12-.056z" fill="#009cae"/><path d="M31 51.648c11.324 0 20.504-9.18 20.504-20.504S42.324 10.64 31 10.64s-20.504 9.18-20.504 20.504S19.676 51.648 31 51.648z" fill="#fff"/><path d="M31 52.8c-5.02-.003-9.883-1.747-13.761-4.933s-6.531-7.62-7.508-12.544-.215-10.034 2.154-14.459 6.199-7.892 10.838-9.81 9.799-2.168 14.601-.708 8.95 4.541 11.736 8.716 4.038 9.188 3.542 14.183-2.707 9.664-6.259 13.211A21.6 21.6 0 0 1 31 52.8zm0-40.984c-4.464.002-8.79 1.551-12.239 4.384s-5.81 6.775-6.68 11.154-.194 8.923 1.912 12.86 5.511 7.021 9.636 8.728 8.714 1.931 12.986.634 7.961-4.035 10.44-7.748 3.594-8.17 3.155-12.612-2.404-8.595-5.562-11.751A19.2 19.2 0 0 0 31 11.848v-.032z" fill="#009cae"/><path d="M16.2 31.584A14.81 14.81 0 0 1 31 16.8" fill="#fff"/><path d="M16.2 32.8a1.2 1.2 0 0 1-1.2-1.2 16 16 0 0 1 16-16 1.2 1.2 0 0 1 1.2 1.2A1.2 1.2 0 0 1 31 18a13.6 13.6 0 0 0-13.6 13.6 1.2 1.2 0 0 1-1.2 1.2z" fill="#009cae"/><path d="M22.728 40c-.318-.003-.622-.129-.848-.352a1.21 1.21 0 0 1 0-1.696l8.368-8.4a1.19 1.19 0 0 1 .848-.354 1.19 1.19 0 0 1 .848.354l3.592 3.592 8.728-8.736a1.21 1.21 0 0 1 1.696 0l3.504 3.504L64.44 12.928a1.2 1.2 0 0 1 .849-.354 1.2 1.2 0 0 1 .851.35 1.2 1.2 0 0 1 .261.389c.061.146.092.302.093.46s-.03.314-.09.46-.148.279-.26.391L50.312 30.456a1.21 1.21 0 0 1-1.696 0l-3.504-3.496-8.728 8.728a1.19 1.19 0 0 1-.848.354 1.19 1.19 0 0 1-.848-.354l-3.592-3.592-7.512 7.512c-.11.119-.242.214-.389.282s-.306.105-.467.11z" fill="#ff8a00"/><path d="M31 52.552c-5.02-.003-9.883-1.746-13.761-4.933s-6.531-7.62-7.508-12.543-.215-10.034 2.154-14.459 6.199-7.892 10.838-9.81 9.799-2.168 14.601-.708 8.95 4.541 11.736 8.716 4.038 9.188 3.542 14.183-2.707 9.664-6.259 13.211A21.6 21.6 0 0 1 31 52.552zm0-40.984c-4.464.004-8.789 1.555-12.238 4.39s-5.808 6.778-6.675 11.157-.189 8.924 1.918 12.859 5.515 7.018 9.641 8.723 8.715 1.927 12.986.627 7.959-4.04 10.436-7.754 3.59-8.172 3.148-12.614-2.409-8.594-5.569-11.748A19.24 19.24 0 0 0 31 11.568z" fill="#009cae"/></g><defs><clipPath id="A"><path fill="#fff" d="M0 0h80v80H0z"/></clipPath></defs></svg>