<svg xmlns="http://www.w3.org/2000/svg" width="80" height="80" fill="none" xmlns:v="https://vecta.io/nano"><g clip-path="url(#A)"><path d="M40 44.224c9.314 0 16.864-7.575 16.864-16.92S49.314 10.384 40 10.384s-16.864 7.575-16.864 16.92 7.55 16.92 16.864 16.92z" fill="#fff"/><path d="M40 45.424a18.12 18.12 0 0 1-16.781-11.147 18.12 18.12 0 0 1 3.892-19.766 18.12 18.12 0 0 1 19.754-3.953 18.12 18.12 0 0 1 11.199 16.746A18.11 18.11 0 0 1 40 45.424zm0-33.84a15.72 15.72 0 0 0-14.563 9.665 15.72 15.72 0 0 0 3.372 17.15 15.72 15.72 0 0 0 17.138 3.433 15.72 15.72 0 0 0 9.717-14.529c.004-4.161-1.643-8.153-4.58-11.101S44.161 11.595 40 11.584z" fill="#009cae"/><path d="M36.048 49.2h7.904a25.76 25.76 0 0 1 18.215 7.545 25.76 25.76 0 0 1 7.545 18.215v.64c.003.262-.046.521-.143.764s-.243.463-.427.649-.403.334-.644.435-.5.153-.762.153H12.264c-.524 0-1.027-.208-1.397-.579s-.579-.873-.579-1.397v-.64a25.76 25.76 0 0 1 25.76-25.76V49.2z" fill="#fff"/><path d="M67.736 78.784H12.264a3.2 3.2 0 0 1-3.2-3.2v-.624A26.99 26.99 0 0 1 36.048 48h7.904a26.99 26.99 0 0 1 26.96 26.96v.648a3.2 3.2 0 0 1-3.176 3.176zM36.048 50.4c-6.512.006-12.755 2.596-17.359 7.2s-7.194 10.848-7.201 17.359v.648a.8.8 0 0 0 .8.8h55.448a.8.8 0 0 0 .8-.8v-.648c-.006-6.516-2.599-12.763-7.209-17.368S50.468 50.4 43.952 50.4h-7.904z" fill="#009cae"/><path d="M41.328 39.88c1.56 0 2.824-1.272 2.824-2.84s-1.264-2.84-2.824-2.84-2.824 1.271-2.824 2.84 1.264 2.84 2.824 2.84z" fill="#fff"/><g fill="#ff8a00"><path d="M41.336 41.08h-.32a4 4 0 0 1-2.312-7.088 4 4 0 0 1 2.936-.96 4 4 0 0 1 3.704 4.336 4 4 0 0 1-4 3.728l-.008-.016zm0-5.68a1.6 1.6 0 0 0-1.056.392 1.64 1.64 0 0 0 .927 2.88 1.6 1.6 0 0 0 1.192-.384c.329-.284.533-.687.568-1.12a1.6 1.6 0 0 0-1.504-1.76l-.128-.008zm23.272-10.208h-2.4c0-12.128-11.48-20.28-22.208-20.28s-22.208 7.752-22.208 20.28h-2.4C15.392 11.2 28.168 2.512 40 2.512s24.608 9.112 24.608 22.68z"/></g><path d="M15.864 25.2h3.056a.8.8 0 0 1 .8.8v5.48a.8.8 0 0 1-.8.8h-3.056a3.2 3.2 0 0 1-3.2-3.2v-.68a3.2 3.2 0 0 1 3.2-3.2z" fill="#fff"/><path d="M18.92 33.488h-3.056a4.4 4.4 0 0 1-4.4-4.4V28.4a4.4 4.4 0 0 1 4.4-4.4h3.056a2 2 0 0 1 1.414.586A2 2 0 0 1 20.92 26v5.488a2.01 2.01 0 0 1-2 2zM15.864 26.4a2 2 0 0 0-2 2v.688a2.01 2.01 0 0 0 2 2h2.656V26.4h-2.656z" fill="#ff8a00"/><path d="M64.136 32.288H61.08a.8.8 0 0 1-.8-.8v-5.48a.8.8 0 0 1 .8-.8h3.056a3.2 3.2 0 0 1 3.2 3.2v.68a3.2 3.2 0 0 1-3.2 3.2z" fill="#fff"/><g fill="#ff8a00"><path d="M64.136 33.488H61.08a2.01 2.01 0 0 1-2-2V26a2 2 0 0 1 2-2h3.056a4.4 4.4 0 0 1 4.4 4.4v.688a4.4 4.4 0 0 1-4.4 4.4zm-2.656-2.4h2.656a2.01 2.01 0 0 0 2-2V28.4a2 2 0 0 0-2-2H61.48v4.688z"/><path d="M52.352 42.488c-3.311-.11-6.559-.946-9.512-2.448l1.016-2.168c5.6 2.624 10.208 2.912 13.736.864 1.298-.789 2.415-1.844 3.275-3.096a10.74 10.74 0 0 0 1.717-4.167l2.4.184a13 13 0 0 1-2.077 5.262c-1.07 1.58-2.475 2.906-4.115 3.882a12.63 12.63 0 0 1-6.44 1.688z"/></g></g><defs><clipPath id="A"><path fill="#fff" d="M0 0h80v80H0z"/></clipPath></defs></svg>