<svg xmlns="http://www.w3.org/2000/svg" xmlns:xlink="http://www.w3.org/1999/xlink" width="80" height="80" fill="none" xmlns:v="https://vecta.io/nano"><g clip-path="url(#A)"><path d="M43.184 3.552H16.128A5.41 5.41 0 0 0 10.72 8.96v61.768a5.41 5.41 0 0 0 5.408 5.408h27.056a5.41 5.41 0 0 0 5.408-5.408V8.96a5.41 5.41 0 0 0-5.408-5.408z" fill="#fff"/><g fill="#009cae"><path d="M43.2 77.336H16.128c-1.752-.002-3.431-.699-4.67-1.938s-1.936-2.918-1.938-4.67V8.968c.002-1.753.699-3.433 1.937-4.673s2.918-1.939 4.671-1.943H43.2c1.753.004 3.432.703 4.671 1.943s1.935 2.92 1.937 4.673v61.76c-.002 1.752-.699 3.431-1.938 4.67s-2.918 1.936-4.67 1.938zM16.128 4.752c-1.117.002-2.187.447-2.976 1.238S11.92 7.851 11.92 8.968v61.76c.002 1.115.446 2.184 1.235 2.973s1.858 1.233 2.973 1.235H43.2c1.115-.002 2.185-.446 2.973-1.235s1.233-1.858 1.235-2.973V8.968c0-1.117-.443-2.188-1.232-2.978S44.317 4.754 43.2 4.752H16.128z"/><path d="M35.016 10.472h-10.72a5.2 5.2 0 0 1-5.192-5.192V2.352h21.104V5.28a5.2 5.2 0 0 1-5.192 5.192zm-13.512-5.72v.528a2.79 2.79 0 0 0 2.792 2.792h10.72a2.79 2.79 0 0 0 2.792-2.792v-.528H21.504z"/><use xlink:href="#B"/><path d="M43.76 20.672H15.552a1.2 1.2 0 0 1 0-2.4H43.76a1.2 1.2 0 0 1 0 2.4zm0 4.304H33.12a1.2 1.2 0 0 1 0-2.4h10.64a1.2 1.2 0 0 1 0 2.4z"/></g><path d="M73.64 53.592H63.248A2.61 2.61 0 0 0 60.64 56.2v.672a2.61 2.61 0 0 0 2.608 2.608H73.64a2.61 2.61 0 0 0 2.608-2.608V56.2a2.61 2.61 0 0 0-2.608-2.608z" fill="#fff"/><path d="M73.6 60.68H63.2c-1.011-.002-1.979-.405-2.693-1.12s-1.115-1.685-1.115-2.696V56.2a3.81 3.81 0 0 1 3.808-3.808h10.4c1.009.002 1.977.404 2.69 1.118s1.116 1.681 1.118 2.69v.664c0 1.011-.401 1.98-1.115 2.696s-1.682 1.118-2.693 1.12zm-10.4-5.888a1.41 1.41 0 0 0-1.408 1.408v.664c0 .374.148.733.412.998s.622.416.996.418h10.4c.374-.002.732-.152.996-.418s.412-.624.412-.998V56.2a1.41 1.41 0 0 0-1.408-1.408H63.2z" fill="#ff8a00"/><use xlink:href="#C" fill="#fff"/><path d="M73.6 44.968H63.2c-1.011-.002-1.979-.405-2.693-1.121s-1.115-1.685-1.115-2.695v-.664A3.81 3.81 0 0 1 63.2 36.68h10.4c1.009.002 1.977.404 2.69 1.118s1.116 1.681 1.118 2.69v.664c0 1.011-.401 1.98-1.115 2.695s-1.682 1.118-2.693 1.121zM63.2 39.08a1.41 1.41 0 0 0-1.408 1.408v.664c-.001.186.035.37.105.541s.174.328.305.459.286.236.458.307a1.41 1.41 0 0 0 .541.108h10.4a1.41 1.41 0 0 0 .541-.108c.171-.071.327-.176.458-.307s.234-.288.305-.459.106-.356.105-.541v-.664A1.41 1.41 0 0 0 73.6 39.08H63.2z" fill="#ff8a00"/><path d="M73.64 26.96H63.248a2.61 2.61 0 0 0-2.608 2.608v.672a2.61 2.61 0 0 0 2.608 2.608H73.64a2.61 2.61 0 0 0 2.608-2.608v-.672a2.61 2.61 0 0 0-2.608-2.608z" fill="#fff"/><g fill="#ff8a00"><path d="M73.6 34.048H63.2c-1.011-.002-1.979-.405-2.693-1.12s-1.115-1.685-1.115-2.695V29.6a3.81 3.81 0 0 1 3.808-3.808h10.4a3.82 3.82 0 0 1 2.711 1.107c.357.354.64.775.834 1.238a3.81 3.81 0 0 1 .295 1.463v.664c-.008 1.011-.418 1.977-1.137 2.686a3.82 3.82 0 0 1-2.703 1.098zM63.2 28.16a1.41 1.41 0 0 0-1.36 1.44v.664a1.42 1.42 0 0 0 1.408 1.417H73.6c.374-.002.732-.152.996-.418s.412-.624.412-.998V29.6a1.41 1.41 0 0 0-.401-1.016c-.131-.134-.288-.241-.461-.314a1.41 1.41 0 0 0-.546-.11H63.2zM50.568 69.6H43.76v-2.4h6.808a1.71 1.71 0 0 0 1.712-1.712V59.44c0-1.088.432-2.132 1.202-2.902s1.814-1.202 2.902-1.202h4.256v2.4h-4.256a1.71 1.71 0 0 0-1.704 1.704v6.024a4.12 4.12 0 0 1-4.112 4.136zm-11.456-4.168h-2.4V43.728a4.11 4.11 0 0 1 4.088-4.104h19.84v2.4H40.8a1.71 1.71 0 0 0-1.712 1.704l.024 21.704z"/><path d="M30.856 65.432h-2.4V32.8a4.11 4.11 0 0 1 4.112-4.104H60.64v2.4H32.568a1.71 1.71 0 0 0-1.712 1.704v32.632z"/></g><path d="M41.152 65.432H18.16a2.61 2.61 0 0 0-2.608 2.608v.672a2.61 2.61 0 0 0 2.608 2.608h22.992a2.61 2.61 0 0 0 2.608-2.608v-.672a2.61 2.61 0 0 0-2.608-2.608z" fill="#fff"/><path d="M41.144 72.52H18.16c-1.011-.002-1.979-.405-2.693-1.121s-1.115-1.685-1.115-2.695v-.664c.002-1.009.404-1.977 1.118-2.69s1.681-1.115 2.69-1.118h22.984c1.011 0 1.98.401 2.696 1.115s1.118 1.682 1.12 2.693v.664c-.002 1.011-.405 1.981-1.12 2.696s-1.685 1.118-2.696 1.12zM18.16 66.632a1.41 1.41 0 0 0-1.408 1.408v.664c0 .374.148.733.412.998s.622.415.996.418h22.984c.186 0 .37-.037.542-.108s.328-.175.459-.307.236-.288.307-.459.108-.356.108-.542v-.664a1.41 1.41 0 0 0-.415-.998 1.41 1.41 0 0 0-.459-.305c-.172-.07-.356-.106-.541-.105H18.16z" fill="#ff8a00"/></g><defs><clipPath id="A"><path fill="#fff" d="M0 0h80v80H0z"/></clipPath><path id="B" d="M43.76 16.32H15.552a1.2 1.2 0 0 1-1.2-1.2 1.2 1.2 0 0 1 1.2-1.2H43.76a1.2 1.2 0 0 1 1.2 1.2 1.2 1.2 0 0 1-1.2 1.2z"/><path id="C" d="M73.64 37.88H63.248a2.61 2.61 0 0 0-2.608 2.608v.672a2.61 2.61 0 0 0 2.608 2.608H73.64a2.61 2.61 0 0 0 2.608-2.608v-.672a2.61 2.61 0 0 0-2.608-2.608z"/></defs></svg>