<svg width="70" height="70" viewBox="0 0 70 70" fill="none" xmlns="http://www.w3.org/2000/svg">
<g clip-path="url(#clip0_39_185)">
<path d="M61.348 7.42004H8.75C4.57473 7.42004 1.19 10.8048 1.19 14.98V44.492C1.19 48.6673 4.57473 52.052 8.75 52.052H61.348C65.5233 52.052 68.908 48.6673 68.908 44.492V14.98C68.908 10.8048 65.5233 7.42004 61.348 7.42004Z" fill="white"/>
<path d="M61.348 53.102H8.75C6.46705 53.1001 4.27814 52.1924 2.66386 50.5781C1.04957 48.9638 0.141853 46.7749 0.139999 44.492V14.98C0.139999 12.6965 1.04712 10.5065 2.66181 8.89181C4.2765 7.27712 6.46649 6.37 8.75 6.37H61.348C63.6303 6.37185 65.8185 7.27979 67.4317 8.89428C69.0448 10.5088 69.951 12.6977 69.951 14.98V44.492C69.9492 46.7737 69.0424 48.9616 67.4296 50.5757C65.8168 52.1898 63.6297 53.0983 61.348 53.102ZM8.75 8.47C7.02401 8.47185 5.36924 9.15832 4.14878 10.3788C2.92832 11.5992 2.24185 13.254 2.24 14.98V44.492C2.24185 46.218 2.92832 47.8728 4.14878 49.0932C5.36924 50.3137 7.02401 51.0001 8.75 51.002H61.348C63.0728 50.9983 64.7258 50.311 65.9447 49.0907C67.1637 47.8705 67.8492 46.2168 67.851 44.492V14.98C67.8492 13.2552 67.1637 11.6015 65.9447 10.3812C64.7258 9.16098 63.0728 8.4737 61.348 8.47H8.75Z" fill="#009CAE"/>
<path d="M69.643 43.8409H68.166C68.1641 45.0595 67.6788 46.2274 66.8165 47.0884C65.9542 47.9494 64.7855 48.4329 63.567 48.4329H6.524C5.30612 48.4329 4.13813 47.9491 3.27696 47.088C2.4158 46.2268 1.932 45.0588 1.932 43.8409H0.447998C0.451164 44.3317 0.512254 44.8205 0.629998 45.2969H0.447998C0.449851 46.9078 1.09059 48.4522 2.22966 49.5913C3.36873 50.7303 4.91311 51.3711 6.524 51.3729H63.567C65.1779 51.3711 66.7223 50.7303 67.8613 49.5913C69.0004 48.4522 69.6411 46.9078 69.643 45.2969H69.461C69.5822 44.8211 69.6433 44.332 69.643 43.8409Z" fill="#009CAE"/>
<path d="M43.981 61.306L40.705 53.116C40.6055 52.8185 40.4188 52.5579 40.1691 52.3681C39.9193 52.1783 39.6182 52.0682 39.305 52.052H30.8C30.4868 52.0682 30.1856 52.1783 29.9359 52.3681C29.6862 52.5579 29.4994 52.8185 29.4 53.116L26.131 61.306C25.627 62.566 26.383 64.022 27.531 64.022H42.574C43.722 64.022 44.478 62.566 43.981 61.306Z" fill="white"/>
<path d="M42.574 65.1H27.517C27.099 65.0989 26.6879 64.9934 26.3211 64.7928C25.9543 64.5923 25.6435 64.3033 25.417 63.952C25.1256 63.5044 24.9478 62.9925 24.899 62.4606C24.8502 61.9288 24.9319 61.3931 25.137 60.9L28.413 52.71C28.5939 52.2188 28.9181 51.7934 29.3438 51.4888C29.7694 51.1842 30.2768 51.0146 30.8 51.002H39.298C39.8228 51.0167 40.3308 51.1896 40.7555 51.4982C41.1803 51.8067 41.5018 52.2364 41.678 52.731L44.954 60.9C45.1484 61.3883 45.2219 61.9164 45.1683 62.4392C45.1147 62.9621 44.9355 63.4642 44.646 63.903C44.4293 64.2607 44.1258 64.558 43.7636 64.7673C43.4014 64.9765 42.9922 65.0909 42.574 65.1ZM30.8 53.102C30.639 53.102 30.464 53.263 30.366 53.508L27.09 61.698C27.0214 61.8666 26.9939 62.0491 27.0097 62.2304C27.0255 62.4118 27.0842 62.5868 27.181 62.741C27.2156 62.8026 27.2639 62.8555 27.3221 62.8955C27.3804 62.9356 27.4471 62.9617 27.517 62.972H42.574C42.6446 62.9639 42.7122 62.9386 42.7708 62.8984C42.8294 62.8581 42.8772 62.804 42.91 62.741C43.0068 62.5868 43.0655 62.4118 43.0813 62.2304C43.0971 62.0491 43.0696 61.8666 43.001 61.698L39.732 53.508C39.634 53.263 39.459 53.102 39.298 53.102H30.8Z" fill="#009CAE"/>
<path d="M49.609 29.064C48.3319 29.0668 47.0827 28.6906 46.0195 27.9831C44.9563 27.2756 44.1269 26.2686 43.6363 25.0895C43.1457 23.9105 43.0159 22.6124 43.2633 21.3595C43.5107 20.1066 44.1243 18.9553 45.0264 18.0513C45.9284 17.1473 47.0784 16.5312 48.3307 16.281C49.5831 16.0309 50.8815 16.1579 52.0616 16.6459C53.2417 17.134 54.2505 17.9612 54.9603 19.0229C55.6701 20.0845 56.049 21.3329 56.049 22.61C56.049 24.3193 55.3709 25.9588 54.1636 27.1687C52.9563 28.3787 51.3183 29.0603 49.609 29.064ZM49.609 18.256C48.7473 18.2532 47.9041 18.5062 47.1862 18.983C46.4684 19.4597 45.9081 20.1387 45.5765 20.9341C45.2448 21.7294 45.1565 22.6053 45.323 23.4508C45.4894 24.2963 45.9029 25.0734 46.5113 25.6838C47.1197 26.2941 47.8954 26.7101 48.7404 26.8793C49.5854 27.0484 50.4615 26.963 51.2579 26.6339C52.0544 26.3048 52.7352 25.7467 53.2142 25.0304C53.6933 24.3141 53.949 23.4717 53.949 22.61C53.9499 22.0391 53.8384 21.4737 53.6208 20.9459C53.4032 20.4182 53.0837 19.9385 52.6807 19.5341C52.2777 19.1298 51.799 18.8089 51.272 18.5896C50.7449 18.3703 50.1799 18.2569 49.609 18.256Z" fill="#FF8A00"/>
<path d="M58.471 41.055H40.754C40.309 41.0532 39.8828 40.8756 39.5681 40.5609C39.2534 40.2463 39.0758 39.82 39.074 39.375V39.2C39.0722 37.9792 39.3108 36.7701 39.7763 35.6415C40.2417 34.513 40.9249 33.4872 41.7868 32.6226C42.6487 31.7581 43.6725 31.0719 44.7996 30.603C45.9268 30.1341 47.1352 29.8919 48.356 29.89H50.869C52.0898 29.8919 53.2982 30.1341 54.4254 30.603C55.5525 31.0719 56.5763 31.7581 57.4382 32.6226C58.3001 33.4872 58.9833 34.513 59.4487 35.6415C59.9142 36.7701 60.1528 37.9792 60.151 39.2V39.403C60.1419 39.8431 59.9611 40.2622 59.6472 40.5709C59.3333 40.8795 58.9112 41.0533 58.471 41.055ZM41.174 38.955H58.051C57.9911 37.0893 57.2085 35.3198 55.8684 34.0202C54.5283 32.7207 52.7357 31.9927 50.869 31.99H48.356C46.4893 31.9927 44.6967 32.7207 43.3566 34.0202C42.0165 35.3198 41.2339 37.0893 41.174 38.955Z" fill="#FF8A00"/>
<path d="M30.912 23.8H10.311C10.0325 23.8 9.76545 23.6893 9.56854 23.4924C9.37163 23.2955 9.261 23.0284 9.261 22.75C9.261 22.4715 9.37163 22.2044 9.56854 22.0075C9.76545 21.8106 10.0325 21.7 10.311 21.7H30.912C31.1905 21.7 31.4576 21.8106 31.6545 22.0075C31.8514 22.2044 31.962 22.4715 31.962 22.75C31.962 23.0284 31.8514 23.2955 31.6545 23.4924C31.4576 23.6893 31.1905 23.8 30.912 23.8Z" fill="#FF8A00"/>
<path d="M30.912 28.098H10.311C10.0325 28.098 9.76545 27.9874 9.56854 27.7905C9.37163 27.5936 9.261 27.3265 9.261 27.048C9.261 26.7696 9.37163 26.5025 9.56854 26.3056C9.76545 26.1087 10.0325 25.998 10.311 25.998H30.912C31.1905 25.998 31.4576 26.1087 31.6545 26.3056C31.8514 26.5025 31.962 26.7696 31.962 27.048C31.962 27.3265 31.8514 27.5936 31.6545 27.7905C31.4576 27.9874 31.1905 28.098 30.912 28.098Z" fill="#FF8A00"/>
<path d="M30.912 32.2H10.311C10.0325 32.2 9.76545 32.0894 9.56854 31.8924C9.37163 31.6955 9.261 31.4285 9.261 31.15C9.261 30.8715 9.37163 30.6044 9.56854 30.4075C9.76545 30.2106 10.0325 30.1 10.311 30.1H30.912C31.1905 30.1 31.4576 30.2106 31.6545 30.4075C31.8514 30.6044 31.962 30.8715 31.962 31.15C31.962 31.4285 31.8514 31.6955 31.6545 31.8924C31.4576 32.0894 31.1905 32.2 30.912 32.2Z" fill="#FF8A00"/>
<path d="M30.912 36.5189H16.863C16.5845 36.5189 16.3175 36.4083 16.1205 36.2114C15.9236 36.0145 15.813 35.7474 15.813 35.4689C15.813 35.1905 15.9236 34.9234 16.1205 34.7265C16.3175 34.5296 16.5845 34.4189 16.863 34.4189H30.912C31.1905 34.4189 31.4576 34.5296 31.6545 34.7265C31.8514 34.9234 31.962 35.1905 31.962 35.4689C31.962 35.7474 31.8514 36.0145 31.6545 36.2114C31.4576 36.4083 31.1905 36.5189 30.912 36.5189Z" fill="#FF8A00"/>
</g>
<defs>
<clipPath id="clip0_39_185">
<rect width="70" height="70" fill="white"/>
</clipPath>
</defs>
</svg>
