<svg width="70" height="70" viewBox="0 0 70 70" fill="none" xmlns="http://www.w3.org/2000/svg">
<path d="M50.099 44.345C52.5796 46.6484 54.5676 49.4308 55.9427 52.524C57.3179 55.6172 58.0518 58.9572 58.1 62.342C58.0994 62.8284 57.9604 63.3047 57.6991 63.715C57.4378 64.1254 57.0651 64.4528 56.6246 64.6592C56.184 64.8655 55.6939 64.9421 55.2114 64.8801C54.7289 64.8181 54.274 64.62 53.9 64.309L44.1 56" fill="white"/>
<path d="M55.496 65.982C54.6338 65.979 53.8015 65.6659 53.151 65.1L43.4 56.7629L44.8 55.1669L54.516 63.511C54.7358 63.7027 55.0063 63.8268 55.295 63.8683C55.5836 63.9098 55.8781 63.8669 56.143 63.7448C56.4079 63.6228 56.6318 63.4267 56.7877 63.1803C56.9437 62.9339 57.0251 62.6476 57.022 62.356C56.9812 59.1144 56.2827 55.9149 54.9688 52.9513C53.6548 49.9877 51.7528 47.3217 49.378 45.1149L50.778 43.575C53.3637 45.9689 55.4365 48.8629 56.8707 52.0816C58.305 55.3002 59.0709 58.7766 59.122 62.3C59.1314 62.9962 58.9379 63.6801 58.5649 64.2681C58.192 64.8561 57.6559 65.3227 57.022 65.611C56.5457 65.8423 56.0254 65.9688 55.496 65.982Z" fill="#FF8A00"/>
<path d="M18.9 44.345C15.573 47.4695 13.1541 51.4365 11.9 55.825C11.2968 57.9457 10.979 60.1373 10.955 62.342C10.9556 62.8284 11.0946 63.3047 11.3559 63.715C11.6172 64.1254 11.9899 64.4528 12.4304 64.6592C12.8709 64.8655 13.3611 64.9421 13.8436 64.8801C14.3261 64.8181 14.781 64.62 15.155 64.309L24.913 56" fill="white"/>
<path d="M13.531 65.982C12.9965 65.9822 12.4684 65.8651 11.984 65.6389C11.3491 65.3522 10.8119 64.8859 10.4388 64.2975C10.0656 63.7092 9.87279 63.0246 9.88401 62.328C9.92777 58.8019 10.6875 55.3214 12.117 52.0978C13.5465 48.8742 15.616 45.9746 18.2 43.575L19.635 45.1149C16.4301 48.0984 14.1016 51.9011 12.901 56.112C12.3213 58.1436 12.0153 60.2434 11.991 62.356C11.9892 62.6463 12.0709 62.931 12.2266 63.1761C12.3822 63.4212 12.6051 63.6163 12.8686 63.7381C13.1322 63.8599 13.4252 63.9032 13.7127 63.8629C14.0002 63.8227 14.2701 63.7005 14.49 63.511L24.227 55.1669L25.627 56.7629L15.876 65.1C15.2256 65.6659 14.3932 65.979 13.531 65.982Z" fill="#FF8A00"/>
<path d="M42.532 56H26.495C24.8938 55.9986 23.3475 55.4158 22.1437 54.3601C20.9399 53.3043 20.1603 51.8473 19.95 50.26L18.977 42.756C17.3111 30.6248 20.2017 18.3068 27.09 8.18297C27.342 7.81897 27.601 7.48297 27.86 7.09797L30.527 3.45097C30.9804 2.81661 31.5786 2.2996 32.2719 1.94291C32.9653 1.58622 33.7338 1.40015 34.5135 1.40015C35.2932 1.40015 36.0617 1.58622 36.755 1.94291C37.4484 2.2996 38.0466 2.81661 38.5 3.45097L41.167 7.09797C41.426 7.45497 41.685 7.79797 41.937 8.18297C48.8185 18.3098 51.7085 30.6252 50.05 42.756L49.07 50.225C48.8705 51.8187 48.0962 53.2848 46.8924 54.3481C45.6886 55.4114 44.1381 55.9988 42.532 56Z" fill="white"/>
<path d="M42.532 57.015H26.495C24.6369 57.0157 22.8419 56.3407 21.4446 55.116C20.0473 53.8912 19.1429 52.2002 18.9 50.358L17.92 42.889C16.2165 30.4966 19.1778 17.9132 26.229 7.58101C26.481 7.21001 26.747 6.83901 27.013 6.47501L29.673 2.80001C30.2293 2.03914 30.9573 1.42025 31.7977 0.993603C32.6382 0.566959 33.5675 0.344604 34.51 0.344604C35.4526 0.344604 36.3818 0.566959 37.2223 0.993603C38.0627 1.42025 38.7907 2.03914 39.347 2.80001L42 6.47501C42.266 6.83901 42.525 7.21001 42.784 7.58101C49.8377 17.9123 52.8014 30.4957 51.1 42.889L50.12 50.358C49.8773 52.199 48.9739 53.8891 47.5781 55.1137C46.1822 56.3383 44.3889 57.014 42.532 57.015ZM34.51 2.47101C33.8979 2.46751 33.2938 2.61057 32.7482 2.88822C32.2027 3.16587 31.7315 3.57006 31.374 4.06701L28.7 7.70001L27.944 8.76401C21.1954 18.6746 18.3712 30.7398 20.02 42.616L21 50.085C21.1764 51.42 21.8314 52.6455 22.8434 53.5339C23.8554 54.4223 25.1554 54.913 26.502 54.915H42.532C43.8761 54.9042 45.1715 54.4104 46.1816 53.5236C47.1917 52.6369 47.8492 51.4164 48.034 50.085L49 42.616C50.6425 30.7435 47.816 18.6842 41.069 8.77801C40.824 8.42101 40.572 8.07801 40.32 7.71401L37.653 4.06701C37.2941 3.56994 36.8216 3.16578 36.2749 2.88817C35.7282 2.61057 35.1231 2.46755 34.51 2.47101Z" fill="#009CAE"/>
<path d="M34.51 34.657C32.643 34.657 30.8178 34.1035 29.2652 33.0665C27.7126 32.0295 26.5023 30.5556 25.7872 28.8309C25.072 27.1062 24.8842 25.2083 25.2474 23.3769C25.6107 21.5455 26.5086 19.8629 27.8279 18.5417C29.1471 17.2206 30.8284 16.3201 32.6592 15.9542C34.49 15.5882 36.3883 15.7732 38.114 16.4858C39.8397 17.1984 41.3155 18.4065 42.3548 19.9576C43.3941 21.5086 43.9502 23.333 43.953 25.2C43.953 27.7057 42.9586 30.109 41.1881 31.8822C39.4176 33.6553 37.0157 34.6533 34.51 34.657ZM34.51 17.857C33.0577 17.857 31.638 18.2877 30.4305 19.0945C29.2229 19.9014 28.2817 21.0482 27.726 22.39C27.1702 23.7317 27.0248 25.2081 27.3081 26.6325C27.5914 28.057 28.2908 29.3653 29.3177 30.3923C30.3447 31.4192 31.6531 32.1186 33.0775 32.4019C34.5019 32.6852 35.9783 32.5398 37.3201 31.984C38.6618 31.4283 39.8086 30.4871 40.6155 29.2796C41.4224 28.072 41.853 26.6523 41.853 25.2C41.8493 23.2549 41.074 21.3908 39.6974 20.0168C38.3207 18.6427 36.4551 17.871 34.51 17.871V17.857Z" fill="#FF8A00"/>
<path d="M34.51 66.745C34.2315 66.745 33.9645 66.6344 33.7676 66.4374C33.5706 66.2405 33.46 65.9735 33.46 65.695V58.905C33.46 58.6265 33.5706 58.3594 33.7676 58.1625C33.9645 57.9656 34.2315 57.855 34.51 57.855C34.7885 57.855 35.0556 57.9656 35.2525 58.1625C35.4494 58.3594 35.56 58.6265 35.56 58.905V65.695C35.56 65.9735 35.4494 66.2405 35.2525 66.4374C35.0556 66.6344 34.7885 66.745 34.51 66.745Z" fill="#FF8A00"/>
<path d="M29.61 69.363C29.3315 69.363 29.0644 69.2524 28.8675 69.0555C28.6706 68.8585 28.56 68.5915 28.56 68.313V62.3C28.56 62.0215 28.6706 61.7545 28.8675 61.5575C29.0644 61.3606 29.3315 61.25 29.61 61.25C29.8885 61.25 30.1555 61.3606 30.3525 61.5575C30.5494 61.7545 30.66 62.0215 30.66 62.3V68.334C30.6545 68.6088 30.5415 68.8705 30.3451 69.0629C30.1488 69.2553 29.8849 69.3631 29.61 69.363Z" fill="#FF8A00"/>
<path d="M39.41 69.363C39.1315 69.363 38.8644 69.2524 38.6675 69.0555C38.4706 68.8585 38.36 68.5915 38.36 68.313V62.3C38.36 62.0215 38.4706 61.7545 38.6675 61.5575C38.8644 61.3606 39.1315 61.25 39.41 61.25C39.6885 61.25 39.9555 61.3606 40.1524 61.5575C40.3494 61.7545 40.46 62.0215 40.46 62.3V68.334C40.4545 68.6088 40.3414 68.8705 40.1451 69.0629C39.9488 69.2553 39.6849 69.3631 39.41 69.363Z" fill="#FF8A00"/>
</svg>
