<svg width="80" height="80" viewBox="0 0 80 80" fill="none" xmlns="http://www.w3.org/2000/svg">
<g clip-path="url(#clip0_39_16)">
<path d="M72.816 10.488H7.53599C6.54188 10.488 5.73599 11.2939 5.73599 12.288V67.704C5.73599 68.6981 6.54188 69.504 7.53599 69.504H72.816C73.8101 69.504 74.616 68.6981 74.616 67.704V12.288C74.616 11.2939 73.8101 10.488 72.816 10.488Z" fill="white"/>
<path d="M72.8 70.712H7.54401C6.74689 70.7099 5.98302 70.3923 5.41937 69.8286C4.85571 69.265 4.53812 68.5011 4.53601 67.704V12.296C4.53812 11.4988 4.85571 10.735 5.41937 10.1713C5.98302 9.60767 6.74689 9.29008 7.54401 9.28796H72.8C73.5964 9.29008 74.3594 9.60793 74.9218 10.1718C75.4842 10.7357 75.8 11.4996 75.8 12.296V67.704C75.8 68.5003 75.4842 69.2642 74.9218 69.8281C74.3594 70.392 73.5964 70.7098 72.8 70.712V70.712ZM7.54401 11.688C7.38276 11.688 7.22811 11.752 7.11409 11.866C7.00007 11.9801 6.93601 12.1347 6.93601 12.296V67.704C6.93601 67.8652 7.00007 68.0199 7.11409 68.1339C7.22811 68.2479 7.38276 68.312 7.54401 68.312H72.8C72.9599 68.3099 73.1125 68.2449 73.2248 68.1311C73.3371 68.0173 73.4 67.8638 73.4 67.704V12.296C73.4 12.1361 73.3371 11.9826 73.2248 11.8688C73.1125 11.7551 72.9599 11.6901 72.8 11.688H7.54401Z" fill="#009CAE"/>
<path d="M12.704 16.992C13.5125 16.992 14.168 16.3365 14.168 15.528C14.168 14.7194 13.5125 14.064 12.704 14.064C11.8954 14.064 11.24 14.7194 11.24 15.528C11.24 16.3365 11.8954 16.992 12.704 16.992Z" fill="#FF8A00"/>
<path d="M17.696 16.992C18.5045 16.992 19.16 16.3365 19.16 15.528C19.16 14.7194 18.5045 14.064 17.696 14.064C16.8874 14.064 16.232 14.7194 16.232 15.528C16.232 16.3365 16.8874 16.992 17.696 16.992Z" fill="#FF8A00"/>
<path d="M22.68 16.992C23.4885 16.992 24.144 16.3365 24.144 15.528C24.144 14.7194 23.4885 14.064 22.68 14.064C21.8715 14.064 21.216 14.7194 21.216 15.528C21.216 16.3365 21.8715 16.992 22.68 16.992Z" fill="#FF8A00"/>
<path d="M67.528 16.728H53.928C53.6097 16.728 53.3045 16.6016 53.0795 16.3765C52.8544 16.1515 52.728 15.8463 52.728 15.528C52.728 15.2097 52.8544 14.9045 53.0795 14.6795C53.3045 14.4544 53.6097 14.328 53.928 14.328H67.528C67.8463 14.328 68.1515 14.4544 68.3765 14.6795C68.6016 14.9045 68.728 15.2097 68.728 15.528C68.728 15.8463 68.6016 16.1515 68.3765 16.3765C68.1515 16.6016 67.8463 16.728 67.528 16.728Z" fill="#FF8A00"/>
<path d="M74.616 18.84H5.73599V21.24H74.616V18.84Z" fill="#009CAE"/>
<path d="M69.536 24.472H10.728C10.3304 24.472 10.008 24.7944 10.008 25.192V32.456C10.008 32.8537 10.3304 33.176 10.728 33.176H69.536C69.9336 33.176 70.256 32.8537 70.256 32.456V25.192C70.256 24.7944 69.9336 24.472 69.536 24.472Z" fill="white"/>
<path d="M69.536 33.968H10.728C10.3249 33.968 9.93826 33.8079 9.65321 33.5228C9.36815 33.2377 9.20801 32.8511 9.20801 32.448V25.192C9.20801 24.7889 9.36815 24.4023 9.65321 24.1172C9.93826 23.8321 10.3249 23.672 10.728 23.672H69.536C69.9385 23.6741 70.3239 23.8349 70.6085 24.1195C70.8931 24.4041 71.0539 24.7895 71.056 25.192V32.448C71.0539 32.8505 70.8931 33.2359 70.6085 33.5205C70.3239 33.8051 69.9385 33.9659 69.536 33.968ZM10.808 32.368H69.456V25.272H10.808V32.368Z" fill="#009CAE"/>
<path d="M69.528 38.208H48.12C47.7224 38.208 47.4 38.5304 47.4 38.928V64.768C47.4 65.1657 47.7224 65.488 48.12 65.488H69.528C69.9256 65.488 70.248 65.1657 70.248 64.768V38.928C70.248 38.5304 69.9256 38.208 69.528 38.208Z" fill="white"/>
<path d="M69.536 66.288H48.128C47.7296 66.2881 47.3469 66.1326 47.0614 65.8547C46.776 65.5767 46.6104 65.1982 46.6 64.8V38.928C46.6021 38.5241 46.764 38.1375 47.0504 37.8527C47.3367 37.5678 47.7241 37.408 48.128 37.408H69.536C69.9385 37.4101 70.3239 37.5709 70.6085 37.8555C70.8931 38.1401 71.0539 38.5255 71.056 38.928V64.8C71.0456 65.1969 70.8812 65.5741 70.5974 65.8519C70.3137 66.1296 69.933 66.286 69.536 66.288V66.288ZM48.2 64.688H69.456V39.008H48.2V64.688Z" fill="#009CAE"/>
<path d="M41.288 58.832H19.88C19.4824 58.832 19.16 59.1544 19.16 59.552V63.408C19.16 63.8057 19.4824 64.128 19.88 64.128H41.288C41.6856 64.128 42.008 63.8057 42.008 63.408V59.552C42.008 59.1544 41.6856 58.832 41.288 58.832Z" fill="white"/>
<path d="M41.296 64.92H19.88C19.4775 64.9179 19.0921 64.7571 18.8075 64.4725C18.5229 64.1879 18.3621 63.8025 18.36 63.4V59.552C18.3621 59.1495 18.5229 58.7641 18.8075 58.4795C19.0921 58.1949 19.4775 58.0341 19.88 58.032H41.296C41.6985 58.0341 42.0839 58.1949 42.3685 58.4795C42.6531 58.7641 42.8139 59.1495 42.816 59.552V63.4C42.8139 63.8025 42.6531 64.1879 42.3685 64.4725C42.0839 64.7571 41.6985 64.9179 41.296 64.92ZM20 63.32H41.216V59.632H20V63.32Z" fill="#009CAE"/>
<path d="M42.016 42.104H28.416C28.0977 42.104 27.7925 41.9775 27.5675 41.7525C27.3424 41.5275 27.216 41.2222 27.216 40.904C27.216 40.5857 27.3424 40.2805 27.5675 40.0555C27.7925 39.8304 28.0977 39.704 28.416 39.704H42.016C42.3343 39.704 42.6395 39.8304 42.8645 40.0555C43.0896 40.2805 43.216 40.5857 43.216 40.904C43.216 41.2222 43.0896 41.5275 42.8645 41.7525C42.6395 41.9775 42.3343 42.104 42.016 42.104V42.104Z" fill="#FF8A00"/>
<path d="M42.016 46.864H13.808C13.5958 46.864 13.3923 46.7798 13.2423 46.6297C13.0923 46.4797 13.008 46.2762 13.008 46.064C13.008 45.8519 13.0923 45.6484 13.2423 45.4984C13.3923 45.3483 13.5958 45.264 13.808 45.264H42.016C42.2282 45.264 42.4317 45.3483 42.5817 45.4984C42.7317 45.6484 42.816 45.8519 42.816 46.064C42.816 46.2762 42.7317 46.4797 42.5817 46.6297C42.4317 46.7798 42.2282 46.864 42.016 46.864Z" fill="#FF8A00"/>
<path d="M42.016 50.528H13.808C13.5958 50.528 13.3923 50.4437 13.2423 50.2937C13.0923 50.1436 13.008 49.9402 13.008 49.728C13.008 49.5158 13.0923 49.3123 13.2423 49.1623C13.3923 49.0123 13.5958 48.928 13.808 48.928H42.016C42.2282 48.928 42.4317 49.0123 42.5817 49.1623C42.7317 49.3123 42.816 49.5158 42.816 49.728C42.816 49.9402 42.7317 50.1436 42.5817 50.2937C42.4317 50.4437 42.2282 50.528 42.016 50.528Z" fill="#FF8A00"/>
<path d="M42.016 54.088H21.216C21.0038 54.088 20.8004 54.0038 20.6503 53.8537C20.5003 53.7037 20.416 53.5002 20.416 53.288C20.416 53.0759 20.5003 52.8724 20.6503 52.7224C20.8004 52.5723 21.0038 52.488 21.216 52.488H42.016C42.2282 52.488 42.4317 52.5723 42.5817 52.7224C42.7317 52.8724 42.816 53.0759 42.816 53.288C42.816 53.5002 42.7317 53.7037 42.5817 53.8537C42.4317 54.0038 42.2282 54.088 42.016 54.088Z" fill="#FF8A00"/>
<path d="M68.7986 38.0482L47.8986 64.2854L49.1501 65.2823L70.0501 39.0451L68.7986 38.0482Z" fill="#009CAE"/>
<path d="M48.6183 38.4465L47.3819 39.462L68.7749 65.5062L70.0113 64.4907L48.6183 38.4465Z" fill="#009CAE"/>
<path d="M70.2773 24.8319L9.28494 31.9645L9.37786 32.7591L70.3702 25.6265L70.2773 24.8319Z" fill="#009CAE"/>
<path d="M9.3749 24.8502L9.28226 25.6448L70.2771 32.7561L70.3697 31.9614L9.3749 24.8502Z" fill="#009CAE"/>
</g>
<defs>
<clipPath id="clip0_39_16">
<rect width="80" height="80" fill="white"/>
</clipPath>
</defs>
</svg>
