<svg width="80" height="80" viewBox="0 0 80 80" fill="none" xmlns="http://www.w3.org/2000/svg">
<g clip-path="url(#clip0_39_218)">
<path d="M40 44.224C49.3137 44.224 56.864 36.6487 56.864 27.304C56.864 17.9594 49.3137 10.384 40 10.384C30.6863 10.384 23.136 17.9594 23.136 27.304C23.136 36.6487 30.6863 44.224 40 44.224Z" fill="white"/>
<path d="M40 45.424C36.4138 45.4351 32.905 44.3818 29.9178 42.3975C26.9307 40.4132 24.5995 37.5871 23.2194 34.2771C21.8394 30.9671 21.4725 27.322 22.1654 23.8034C22.8582 20.2848 24.5795 17.0509 27.1114 14.5112C29.6433 11.9714 32.8718 10.2401 36.3883 9.53638C39.9048 8.83267 43.551 9.18822 46.8652 10.558C50.1795 11.9278 53.0127 14.2503 55.0063 17.2313C56.9998 20.2123 58.064 23.7178 58.064 27.304C58.0661 32.1007 56.1654 36.7023 52.7789 40.0993C49.3924 43.4964 44.7966 45.4113 40 45.424ZM40 11.584C36.8885 11.5729 33.8437 12.4855 31.2512 14.206C28.6587 15.9266 26.6351 18.3779 25.4367 21.2493C24.2383 24.1208 23.919 27.2833 24.5192 30.3364C25.1195 33.3894 26.6122 36.1957 28.8084 38.3998C31.0047 40.6039 33.8056 42.1066 36.8565 42.7177C39.9074 43.3288 43.071 43.0208 45.9468 41.8327C48.8225 40.6445 51.2809 38.6297 53.0107 36.0434C54.7406 33.457 55.664 30.4155 55.664 27.304C55.6682 23.1432 54.0211 19.1508 51.0842 16.2034C48.1473 13.256 44.1608 11.5946 40 11.584Z" fill="#009CAE"/>
<path d="M36.048 49.2H43.952C47.3349 49.2 50.6846 49.8663 53.8099 51.1608C56.9353 52.4554 59.7751 54.3528 62.1671 56.7449C64.5591 59.1369 66.4566 61.9767 67.7512 65.102C69.0457 68.2274 69.712 71.5771 69.712 74.9599V75.6C69.7152 75.8615 69.6664 76.121 69.5686 76.3635C69.4707 76.606 69.3256 76.8267 69.1418 77.0127C68.958 77.1988 68.7391 77.3465 68.4978 77.4473C68.2565 77.5481 67.9975 77.6 67.736 77.6H12.264C11.74 77.6 11.2374 77.3918 10.8668 77.0212C10.4962 76.6506 10.288 76.148 10.288 75.624V74.984C10.288 68.152 13.002 61.5998 17.833 56.7689C22.6639 51.9379 29.216 49.224 36.048 49.224V49.2Z" fill="white"/>
<path d="M67.736 78.784H12.264C11.4153 78.784 10.6014 78.4469 10.0013 77.8467C9.40117 77.2466 9.06403 76.4327 9.06403 75.584V74.96C9.0725 67.8082 11.9189 60.9521 16.9783 55.8973C22.0376 50.8425 28.8962 48.0021 36.048 48H43.952C51.0997 48.0085 57.9521 50.8516 63.0063 55.9058C68.0604 60.9599 70.9036 67.8124 70.912 74.96V75.608C70.9057 76.4484 70.5691 77.2526 69.9749 77.8468C69.3806 78.4411 68.5764 78.7777 67.736 78.784ZM36.048 50.4C29.5363 50.4064 23.293 52.996 18.6885 57.6005C14.084 62.205 11.4944 68.4482 11.488 74.96V75.608C11.488 75.8202 11.5723 76.0237 11.7223 76.1737C11.8724 76.3237 12.0759 76.408 12.288 76.408H67.736C67.9482 76.408 68.1517 76.3237 68.3017 76.1737C68.4517 76.0237 68.536 75.8202 68.536 75.608V74.96C68.5297 68.4441 65.9368 62.1972 61.3271 57.592C56.7174 52.9868 50.468 50.4 43.952 50.4H36.048Z" fill="#009CAE"/>
<path d="M41.328 39.88C42.8877 39.88 44.152 38.6084 44.152 37.04C44.152 35.4715 42.8877 34.2 41.328 34.2C39.7684 34.2 38.504 35.4715 38.504 37.04C38.504 38.6084 39.7684 39.88 41.328 39.88Z" fill="white"/>
<path d="M41.336 41.08H41.016C40.2114 41.0351 39.4391 40.7482 38.8003 40.2568C38.1615 39.7655 37.686 39.0927 37.4361 38.3266C37.1862 37.5605 37.1735 36.7367 37.3998 35.9632C37.626 35.1898 38.0806 34.5027 38.704 33.992C39.1053 33.6453 39.5715 33.3819 40.0756 33.2171C40.5796 33.0523 41.1114 32.9894 41.64 33.032C42.1694 33.0693 42.6862 33.2115 43.1601 33.4505C43.634 33.6895 44.0556 34.0204 44.4003 34.424C44.7451 34.8276 45.0061 35.2957 45.1681 35.8011C45.3301 36.3066 45.3899 36.8392 45.344 37.368C45.2749 38.381 44.8232 39.3299 44.0804 40.0221C43.3376 40.7144 42.3594 41.0983 41.344 41.096L41.336 41.08ZM41.336 35.4C40.9481 35.3983 40.5728 35.5376 40.28 35.792C40.0343 36.0023 39.8563 36.2805 39.7683 36.5916C39.6804 36.9028 39.6863 37.233 39.7855 37.5408C39.8847 37.8486 40.0726 38.1202 40.3257 38.3214C40.5788 38.5227 40.8858 38.6447 41.208 38.672C41.4223 38.6914 41.6383 38.6674 41.8431 38.6014C42.0479 38.5355 42.2373 38.4288 42.4 38.288C42.729 38.0037 42.933 37.6014 42.968 37.168C42.9899 36.9527 42.968 36.7351 42.9035 36.5286C42.839 36.322 42.7332 36.1306 42.5926 35.9661C42.452 35.8016 42.2795 35.6673 42.0855 35.5714C41.8915 35.4754 41.6801 35.4198 41.464 35.408L41.336 35.4Z" fill="#FF8A00"/>
<path d="M64.608 25.192H62.208C62.208 13.064 50.728 4.91196 40 4.91196C29.272 4.91196 17.792 12.664 17.792 25.192H15.392C15.392 11.2 28.168 2.51196 40 2.51196C51.832 2.51196 64.608 11.624 64.608 25.192Z" fill="#FF8A00"/>
<path d="M15.864 25.2H18.92C19.1322 25.2 19.3357 25.2842 19.4857 25.4343C19.6357 25.5843 19.72 25.7878 19.72 26V31.4799C19.72 31.6921 19.6357 31.8956 19.4857 32.0456C19.3357 32.1957 19.1322 32.28 18.92 32.28H15.864C15.0153 32.28 14.2014 31.9428 13.6013 31.3427C13.0011 30.7426 12.664 29.9286 12.664 29.08V28.4C12.664 27.5513 13.0011 26.7373 13.6013 26.1372C14.2014 25.5371 15.0153 25.2 15.864 25.2Z" fill="white"/>
<path d="M18.92 33.488H15.864C14.697 33.488 13.5779 33.0244 12.7527 32.1993C11.9276 31.3741 11.464 30.255 11.464 29.088V28.4C11.464 27.233 11.9276 26.1139 12.7527 25.2887C13.5779 24.4636 14.697 24 15.864 24H18.92C19.1826 24 19.4427 24.0517 19.6854 24.1522C19.928 24.2528 20.1485 24.4001 20.3342 24.5858C20.5199 24.7715 20.6672 24.992 20.7677 25.2346C20.8683 25.4773 20.92 25.7374 20.92 26V31.488C20.9179 32.0178 20.7065 32.5253 20.3319 32.8999C19.9573 33.2745 19.4498 33.4859 18.92 33.488ZM15.864 26.4C15.3336 26.4 14.8248 26.6107 14.4498 26.9858C14.0747 27.3609 13.864 27.8696 13.864 28.4V29.088C13.8661 29.6178 14.0775 30.1253 14.4521 30.4999C14.8267 30.8745 15.3342 31.0859 15.864 31.088H18.52V26.4H15.864Z" fill="#FF8A00"/>
<path d="M64.136 32.288H61.08C60.8678 32.288 60.6643 32.2037 60.5143 32.0536C60.3643 31.9036 60.28 31.7001 60.28 31.488V26.008C60.28 25.7958 60.3643 25.5923 60.5143 25.4423C60.6643 25.2922 60.8678 25.208 61.08 25.208H64.136C64.9847 25.208 65.7986 25.5451 66.3987 26.1452C66.9989 26.7453 67.336 27.5593 67.336 28.408V29.088C67.336 29.9367 66.9989 30.7506 66.3987 31.3507C65.7986 31.9508 64.9847 32.288 64.136 32.288Z" fill="white"/>
<path d="M64.136 33.488H61.08C60.5502 33.4859 60.0428 33.2745 59.6681 32.8999C59.2935 32.5253 59.0821 32.0178 59.08 31.488V26C59.08 25.4696 59.2907 24.9609 59.6658 24.5858C60.0409 24.2107 60.5496 24 61.08 24H64.136C65.303 24 66.4221 24.4636 67.2473 25.2887C68.0724 26.1139 68.536 27.233 68.536 28.4V29.088C68.536 30.255 68.0724 31.3741 67.2473 32.1993C66.4221 33.0244 65.303 33.488 64.136 33.488ZM61.48 31.088H64.136C64.6658 31.0859 65.1733 30.8745 65.5479 30.4999C65.9225 30.1253 66.1339 29.6178 66.136 29.088V28.4C66.136 27.8696 65.9253 27.3609 65.5502 26.9858C65.1752 26.6107 64.6664 26.4 64.136 26.4H61.48V31.088Z" fill="#FF8A00"/>
<path d="M52.352 42.488C49.0405 42.3777 45.7934 41.542 42.84 40.04L43.856 37.872C49.456 40.496 54.064 40.784 57.592 38.736C58.8904 37.947 60.0067 36.8917 60.8672 35.6395C61.7277 34.3874 62.3129 32.967 62.584 31.472L64.984 31.656C64.6864 33.5413 63.9774 35.3379 62.9072 36.9182C61.8371 38.4986 60.4321 39.8239 58.792 40.8C56.8349 41.9285 54.611 42.5114 52.352 42.488Z" fill="#FF8A00"/>
</g>
<defs>
<clipPath id="clip0_39_218">
<rect width="80" height="80" fill="white"/>
</clipPath>
</defs>
</svg>
