<svg width="80" height="80" viewBox="0 0 80 80" fill="none" xmlns="http://www.w3.org/2000/svg">
<g clip-path="url(#clip0_44_277)">
<path d="M42.7953 47.0295L46.8852 42.9396C47.1497 42.6869 47.5027 42.5478 47.8685 42.552C48.2343 42.5563 48.5839 42.7035 48.8425 42.9623L68.2172 62.337C68.6161 62.7359 68.9326 63.2095 69.1485 63.7307C69.3644 64.2519 69.4755 64.8106 69.4755 65.3747C69.4755 65.9389 69.3644 66.4975 69.1485 67.0187C68.9326 67.5399 68.6161 68.0135 68.2172 68.4124C67.4116 69.2181 66.3189 69.6707 65.1795 69.6707C64.0401 69.6707 62.9474 69.2181 62.1418 68.4124L42.767 49.0377C42.6346 48.9054 42.53 48.7478 42.4595 48.5743C42.389 48.4008 42.3541 48.2149 42.3567 48.0276C42.3593 47.8404 42.3995 47.6556 42.4749 47.4841C42.5502 47.3127 42.6592 47.1581 42.7953 47.0295Z" fill="white"/>
<path d="M65.208 70.84C64.4863 70.8441 63.7709 70.7048 63.1035 70.4302C62.436 70.1555 61.8298 69.7509 61.32 69.24L41.944 49.856C41.7021 49.6145 41.5102 49.3277 41.3793 49.012C41.2484 48.6962 41.181 48.3578 41.181 48.016C41.181 47.6742 41.2484 47.3358 41.3793 47.02C41.5102 46.7043 41.7021 46.4175 41.944 46.176L46.04 42.088C46.2815 41.8461 46.5683 41.6542 46.884 41.5233C47.1998 41.3923 47.5382 41.325 47.88 41.325C48.2218 41.325 48.5603 41.3923 48.876 41.5233C49.1917 41.6542 49.4785 41.8461 49.72 42.088L69.096 61.464C70.1253 62.4945 70.7035 63.8915 70.7035 65.348C70.7035 66.8045 70.1253 68.2015 69.096 69.232C68.5864 69.7437 67.9804 70.1492 67.313 70.4252C66.6456 70.7012 65.9302 70.8422 65.208 70.84ZM47.88 43.728C47.8534 43.7268 47.8269 43.7312 47.8021 43.7409C47.7773 43.7505 47.7548 43.7652 47.736 43.784L43.64 47.872C43.6046 47.9116 43.585 47.9629 43.585 48.016C43.585 48.0691 43.6046 48.1204 43.64 48.16L63.016 67.536C63.6091 68.0917 64.3913 68.4009 65.204 68.4009C66.0167 68.4009 66.799 68.0917 67.392 67.536C67.6811 67.2496 67.9105 66.9088 68.0671 66.5333C68.2237 66.1577 68.3043 65.7549 68.3043 65.348C68.3043 64.9411 68.2237 64.5383 68.0671 64.1627C67.9105 63.7872 67.6811 63.4464 67.392 63.16L48 43.784C47.9672 43.7528 47.925 43.7331 47.88 43.728Z" fill="#009CAE"/>
<path d="M31 51.648C42.324 51.648 51.504 42.4681 51.504 31.144C51.504 19.82 42.324 10.64 31 10.64C19.676 10.64 10.496 19.82 10.496 31.144C10.496 42.4681 19.676 51.648 31 51.648Z" fill="white"/>
<path d="M31 52.8C25.9804 52.7969 21.1172 51.0534 17.239 47.8667C13.3608 44.6799 10.7076 40.247 9.73145 35.3232C8.75529 30.3995 9.51659 25.2896 11.8856 20.8643C14.2547 16.4389 18.0849 12.972 22.7236 11.0541C27.3623 9.13619 32.5225 8.88608 37.325 10.3464C42.1274 11.8066 46.275 14.8869 49.0609 19.0624C51.8468 23.2379 53.0987 28.2502 52.6033 33.2453C52.1079 38.2403 49.8958 42.909 46.344 46.456C44.3313 48.4733 41.9394 50.0724 39.3059 51.1612C36.6725 52.25 33.8496 52.8069 31 52.8ZM31 11.816C26.5359 11.8177 22.2104 13.3672 18.7606 16.2004C15.3108 19.0337 12.9502 22.9755 12.0808 27.3542C11.2114 31.7328 11.8872 36.2775 13.9929 40.2138C16.0986 44.1501 19.504 47.2345 23.6289 48.9415C27.7537 50.6485 32.3429 50.8725 36.6144 49.5753C40.8859 48.2781 44.5755 45.54 47.0546 41.8275C49.5336 38.115 50.6487 33.6577 50.2099 29.2152C49.7711 24.7727 47.8055 20.6197 44.648 17.464C42.856 15.6739 40.7275 14.2561 38.3852 13.2923C36.0428 12.3284 33.5329 11.8375 31 11.848V11.816Z" fill="#009CAE"/>
<path d="M16.2 31.584C16.2064 27.6623 17.7682 23.9032 20.5428 21.1315C23.3174 18.3599 27.0782 16.8022 31 16.8" fill="white"/>
<path d="M16.2 32.8C15.8817 32.8 15.5765 32.6735 15.3515 32.4485C15.1264 32.2235 15 31.9182 15 31.6C15 27.3565 16.6857 23.2868 19.6863 20.2863C22.6869 17.2857 26.7565 15.6 31 15.6C31.3183 15.6 31.6235 15.7264 31.8485 15.9514C32.0736 16.1765 32.2 16.4817 32.2 16.8C32.2 17.1182 32.0736 17.4235 31.8485 17.6485C31.6235 17.8735 31.3183 18 31 18C27.3931 18 23.9338 19.4328 21.3833 21.9833C18.8329 24.5338 17.4 27.993 17.4 31.6C17.4 31.9182 17.2736 32.2235 17.0485 32.4485C16.8235 32.6735 16.5183 32.8 16.2 32.8Z" fill="#009CAE"/>
<path d="M22.728 40.0001C22.4104 39.9972 22.1063 39.871 21.88 39.6481C21.6572 39.422 21.5323 39.1174 21.5323 38.8001C21.5323 38.4827 21.6572 38.1781 21.88 37.9521L30.248 29.5521C30.3589 29.4398 30.4909 29.3507 30.6365 29.2899C30.782 29.2291 30.9382 29.1978 31.096 29.1978C31.2538 29.1978 31.4099 29.2291 31.5555 29.2899C31.7011 29.3507 31.8331 29.4398 31.944 29.5521L35.536 33.1441L44.264 24.4081C44.49 24.1853 44.7946 24.0604 45.112 24.0604C45.4294 24.0604 45.734 24.1853 45.96 24.4081L49.464 27.9121L64.44 12.9281C64.5514 12.8162 64.6837 12.7273 64.8294 12.6666C64.9751 12.6058 65.1313 12.5743 65.2892 12.574C65.447 12.5736 65.6034 12.6043 65.7494 12.6644C65.8954 12.7245 66.0281 12.8127 66.14 12.9241C66.2519 13.0354 66.3407 13.1677 66.4015 13.3134C66.4622 13.4591 66.4937 13.6154 66.4941 13.7732C66.4944 13.9311 66.4637 14.0875 66.4037 14.2335C66.3436 14.3794 66.2554 14.5122 66.144 14.6241L50.312 30.4561C50.086 30.6788 49.7814 30.8037 49.464 30.8037C49.1466 30.8037 48.842 30.6788 48.616 30.4561L45.112 26.9601L36.384 35.6881C36.2731 35.8003 36.1411 35.8894 35.9955 35.9502C35.8499 36.011 35.6938 36.0423 35.536 36.0423C35.3782 36.0423 35.222 36.011 35.0765 35.9502C34.9309 35.8894 34.7989 35.8003 34.688 35.6881L31.096 32.0961L23.584 39.6081C23.4742 39.7267 23.3421 39.8224 23.1952 39.8897C23.0483 39.9569 22.8895 39.9945 22.728 40.0001Z" fill="#FF8A00"/>
<path d="M31 52.552C25.9804 52.549 21.1172 50.8055 17.239 47.6187C13.3608 44.432 10.7076 39.999 9.73145 35.0753C8.75529 30.1516 9.51659 25.0417 11.8856 20.6164C14.2547 16.191 18.0849 12.724 22.7236 10.8062C27.3623 8.88827 32.5225 8.63815 37.325 10.0984C42.1274 11.5587 46.275 14.639 49.0609 18.8145C51.8468 22.99 53.0987 28.0023 52.6033 32.9973C52.1079 37.9924 49.8958 42.6611 46.344 46.208C44.3313 48.2253 41.9394 49.8245 39.3059 50.9133C36.6725 52.0021 33.8496 52.559 31 52.552ZM31 11.568C26.5357 11.5716 22.2108 13.123 18.7621 15.9578C15.3135 18.7927 12.9545 22.7357 12.0871 27.1149C11.2197 31.4941 11.8976 36.0386 14.0052 39.974C16.1129 43.9094 19.5199 46.9923 23.6458 48.6973C27.7717 50.4023 32.3611 50.6239 36.6321 49.3245C40.903 48.025 44.5913 45.2848 47.0684 41.5708C49.5455 37.8568 50.6582 33.3988 50.2168 28.9564C49.7755 24.514 47.8074 20.3621 44.648 17.208C42.8567 15.4154 40.7288 13.9944 38.3867 13.0265C36.0445 12.0586 33.5343 11.563 31 11.568Z" fill="#009CAE"/>
</g>
<defs>
<clipPath id="clip0_44_277">
<rect width="80" height="80" fill="white"/>
</clipPath>
</defs>
</svg>
