<svg width="80" height="80" viewBox="0 0 80 80" fill="none" xmlns="http://www.w3.org/2000/svg">
<g clip-path="url(#clip0_39_84)">
<path d="M43.184 3.552H16.128C13.1412 3.552 10.72 5.97325 10.72 8.96V70.728C10.72 73.7148 13.1412 76.136 16.128 76.136H43.184C46.1708 76.136 48.592 73.7148 48.592 70.728V8.96C48.592 5.97325 46.1708 3.552 43.184 3.552Z" fill="white"/>
<path d="M43.2 77.336H16.128C14.3761 77.3339 12.6966 76.637 11.4578 75.3983C10.219 74.1595 9.52211 72.4799 9.52 70.7281V8.96805C9.52211 7.21541 10.2187 5.53504 11.4573 4.29499C12.6958 3.05494 14.3754 2.35628 16.128 2.35205H43.2C44.9526 2.35628 46.6322 3.05494 47.8707 4.29499C49.1093 5.53504 49.8059 7.21541 49.808 8.96805V70.7281C49.8059 72.4799 49.109 74.1595 47.8702 75.3983C46.6314 76.637 44.9519 77.3339 43.2 77.336ZM16.128 4.75205C15.0112 4.75417 13.9409 5.19929 13.152 5.98971C12.3631 6.78014 11.92 7.85128 11.92 8.96805V70.7281C11.9221 71.8434 12.3661 72.9125 13.1548 73.7012C13.9435 74.4899 15.0126 74.9339 16.128 74.936H43.2C44.3154 74.9339 45.3845 74.4899 46.1732 73.7012C46.9619 72.9125 47.4059 71.8434 47.408 70.7281V8.96805C47.408 7.85128 46.9649 6.78014 46.176 5.98971C45.3871 5.19929 44.3168 4.75417 43.2 4.75205H16.128Z" fill="#009CAE"/>
<path d="M35.016 10.4721H24.296C22.9197 10.4699 21.6003 9.92224 20.627 8.94901C19.6538 7.97578 19.1061 6.6564 19.104 5.28005V2.35205H40.208V5.28005C40.2059 6.6564 39.6582 7.97578 38.685 8.94901C37.7117 9.92224 36.3924 10.4699 35.016 10.4721ZM21.504 4.75205V5.28005C21.504 6.02054 21.7982 6.73069 22.3218 7.25429C22.8454 7.77789 23.5555 8.07205 24.296 8.07205H35.016C35.7565 8.07205 36.4666 7.77789 36.9902 7.25429C37.5138 6.73069 37.808 6.02054 37.808 5.28005V4.75205H21.504Z" fill="#009CAE"/>
<path d="M43.76 16.32H15.552C15.2337 16.32 14.9285 16.1936 14.7035 15.9686C14.4784 15.7435 14.352 15.4383 14.352 15.12C14.352 14.8018 14.4784 14.4966 14.7035 14.2715C14.9285 14.0465 15.2337 13.92 15.552 13.92H43.76C44.0783 13.92 44.3835 14.0465 44.6085 14.2715C44.8336 14.4966 44.96 14.8018 44.96 15.12C44.96 15.4383 44.8336 15.7435 44.6085 15.9686C44.3835 16.1936 44.0783 16.32 43.76 16.32Z" fill="#009CAE"/>
<path d="M43.76 20.672H15.552C15.2337 20.672 14.9285 20.5455 14.7035 20.3205C14.4784 20.0955 14.352 19.7902 14.352 19.472C14.352 19.1537 14.4784 18.8485 14.7035 18.6234C14.9285 18.3984 15.2337 18.272 15.552 18.272H43.76C44.0783 18.272 44.3835 18.3984 44.6085 18.6234C44.8336 18.8485 44.96 19.1537 44.96 19.472C44.96 19.7902 44.8336 20.0955 44.6085 20.3205C44.3835 20.5455 44.0783 20.672 43.76 20.672Z" fill="#009CAE"/>
<path d="M43.76 24.976H33.12C32.8017 24.976 32.4965 24.8496 32.2715 24.6246C32.0464 24.3995 31.92 24.0943 31.92 23.776C31.92 23.4578 32.0464 23.1526 32.2715 22.9275C32.4965 22.7025 32.8017 22.576 33.12 22.576H43.76C44.0783 22.576 44.3835 22.7025 44.6085 22.9275C44.8336 23.1526 44.96 23.4578 44.96 23.776C44.96 24.0943 44.8336 24.3995 44.6085 24.6246C44.3835 24.8496 44.0783 24.976 43.76 24.976Z" fill="#009CAE"/>
<path d="M73.64 53.592H63.248C61.8076 53.592 60.64 54.7597 60.64 56.2V56.872C60.64 58.3124 61.8076 59.48 63.248 59.48H73.64C75.0804 59.48 76.248 58.3124 76.248 56.872V56.2C76.248 54.7597 75.0804 53.592 73.64 53.592Z" fill="white"/>
<path d="M73.6 60.68H63.2C62.1893 60.6778 61.2208 60.2749 60.5068 59.5595C59.7929 58.8441 59.392 57.8747 59.392 56.864V56.2C59.392 55.19 59.7932 54.2214 60.5073 53.5073C61.2215 52.7932 62.1901 52.392 63.2 52.392H73.6C74.6093 52.3941 75.5766 52.796 76.2903 53.5096C77.004 54.2233 77.4059 55.1907 77.408 56.2V56.864C77.408 57.8747 77.0071 58.8441 76.2931 59.5595C75.5792 60.2749 74.6107 60.6778 73.6 60.68ZM63.2 54.792C62.8266 54.792 62.4684 54.9403 62.2044 55.2044C61.9403 55.4684 61.792 55.8265 61.792 56.2V56.864C61.792 57.2381 61.9401 57.5971 62.2039 57.8624C62.4677 58.1277 62.8258 58.2779 63.2 58.28H73.6C73.9742 58.2779 74.3323 58.1277 74.5961 57.8624C74.8599 57.5971 75.008 57.2381 75.008 56.864V56.2C75.008 55.8265 74.8597 55.4684 74.5956 55.2044C74.3316 54.9403 73.9734 54.792 73.6 54.792H63.2Z" fill="#FF8A00"/>
<path d="M73.64 37.88H63.248C61.8076 37.88 60.64 39.0476 60.64 40.488V41.16C60.64 42.6004 61.8076 43.768 63.248 43.768H73.64C75.0804 43.768 76.248 42.6004 76.248 41.16V40.488C76.248 39.0476 75.0804 37.88 73.64 37.88Z" fill="white"/>
<path d="M73.6 44.9681H63.2C62.1893 44.9659 61.2208 44.563 60.5068 43.8475C59.7929 43.1321 59.392 42.1627 59.392 41.1521V40.4881C59.392 39.4781 59.7932 38.5095 60.5073 37.7954C61.2215 37.0813 62.1901 36.6801 63.2 36.6801H73.6C74.6093 36.6822 75.5766 37.084 76.2903 37.7977C77.004 38.5114 77.4059 39.4788 77.408 40.4881V41.1521C77.408 42.1627 77.0071 43.1321 76.2931 43.8475C75.5792 44.563 74.6107 44.9659 73.6 44.9681ZM63.2 39.0801C62.8266 39.0801 62.4684 39.2284 62.2044 39.4924C61.9403 39.7565 61.792 40.1146 61.792 40.4881V41.1521C61.7909 41.3376 61.8266 41.5216 61.8969 41.6933C61.9672 41.8651 62.0707 42.0212 62.2016 42.1528C62.3324 42.2844 62.488 42.3889 62.6593 42.4601C62.8307 42.5314 63.0144 42.5681 63.2 42.5681H73.6C73.7856 42.5681 73.9693 42.5314 74.1407 42.4601C74.312 42.3889 74.4676 42.2844 74.5984 42.1528C74.7293 42.0212 74.8328 41.8651 74.9031 41.6933C74.9734 41.5216 75.0091 41.3376 75.008 41.1521V40.4881C75.008 40.1146 74.8597 39.7565 74.5956 39.4924C74.3316 39.2284 73.9734 39.0801 73.6 39.0801H63.2Z" fill="#FF8A00"/>
<path d="M73.64 26.96H63.248C61.8076 26.96 60.64 28.1276 60.64 29.568V30.24C60.64 31.6803 61.8076 32.848 63.248 32.848H73.64C75.0804 32.848 76.248 31.6803 76.248 30.24V29.568C76.248 28.1276 75.0804 26.96 73.64 26.96Z" fill="white"/>
<path d="M73.6 34.0479H63.2C62.1893 34.0458 61.2208 33.6428 60.5068 32.9274C59.7929 32.212 59.392 31.2426 59.392 30.2319V29.5999C59.392 28.59 59.7932 27.6214 60.5073 26.9073C61.2215 26.1931 62.1901 25.7919 63.2 25.7919H73.6C74.1025 25.7888 74.6006 25.8849 75.0658 26.0747C75.5311 26.2646 75.9542 26.5445 76.311 26.8983C76.6678 27.2521 76.9512 27.6729 77.1449 28.1365C77.3387 28.6001 77.439 29.0975 77.44 29.5999V30.2639C77.4315 31.2746 77.0225 32.2407 76.3026 32.9501C75.5826 33.6595 74.6107 34.0543 73.6 34.0479ZM63.2 28.1599C62.8294 28.1725 62.4786 28.3308 62.224 28.6004C61.9693 28.87 61.8314 29.2292 61.84 29.5999V30.2639C61.84 30.6381 61.9881 30.9971 62.2519 31.2624C62.5157 31.5277 62.8738 31.6778 63.248 31.6799H73.6C73.9742 31.6778 74.3323 31.5277 74.5961 31.2624C74.8599 30.9971 75.008 30.6381 75.008 30.2639V29.5999C75.0123 29.4124 74.979 29.2258 74.9102 29.0513C74.8413 28.8768 74.7383 28.7177 74.6071 28.5836C74.4759 28.4494 74.3193 28.3428 74.1463 28.2701C73.9734 28.1973 73.7876 28.1599 73.6 28.1599H63.2Z" fill="#FF8A00"/>
<path d="M50.568 69.5999H43.76V67.1999H50.568C51.0221 67.1999 51.4575 67.0196 51.7786 66.6985C52.0996 66.3774 52.28 65.942 52.28 65.4879V59.4399C52.28 58.3515 52.7124 57.3076 53.482 56.538C54.2517 55.7683 55.2956 55.3359 56.384 55.3359H60.64V57.7359H56.384C55.9327 57.738 55.5005 57.9182 55.1814 58.2374C54.8623 58.5565 54.6821 58.9887 54.68 59.4399V65.4639C54.6821 66.0057 54.5774 66.5425 54.3717 67.0437C54.1661 67.5448 53.8637 68.0006 53.4818 68.3847C53.0998 68.7689 52.6459 69.074 52.1459 69.2825C51.6459 69.491 51.1097 69.5989 50.568 69.5999Z" fill="#FF8A00"/>
<path d="M39.112 65.432H36.712V43.728C36.7141 42.643 37.145 41.6028 37.9107 40.834C38.6764 40.0653 39.715 39.6304 40.8 39.624H60.64V42.024H40.8C40.3473 42.024 39.9131 42.2033 39.5923 42.5226C39.2714 42.842 39.0901 43.2754 39.088 43.728L39.112 65.432Z" fill="#FF8A00"/>
<path d="M30.856 65.432H28.456V32.8C28.4581 31.7109 28.8923 30.667 29.6632 29.8976C30.4341 29.1282 31.4788 28.696 32.568 28.696H60.64V31.096H32.568C32.1153 31.096 31.6811 31.2753 31.3603 31.5946C31.0394 31.914 30.8581 32.3474 30.856 32.8V65.432Z" fill="#FF8A00"/>
<path d="M41.152 65.432H18.16C16.7196 65.432 15.552 66.5996 15.552 68.04V68.712C15.552 70.1524 16.7196 71.32 18.16 71.32H41.152C42.5924 71.32 43.76 70.1524 43.76 68.712V68.04C43.76 66.5996 42.5924 65.432 41.152 65.432Z" fill="white"/>
<path d="M41.144 72.5201H18.16C17.1493 72.5179 16.1808 72.115 15.4668 71.3995C14.7529 70.6841 14.352 69.7147 14.352 68.7041V68.0401C14.3541 67.0308 14.756 66.0634 15.4697 65.3497C16.1833 64.636 17.1507 64.2342 18.16 64.2321H41.144C42.1547 64.2321 43.1241 64.633 43.8395 65.3469C44.5549 66.0608 44.9579 67.0294 44.96 68.0401V68.7041C44.9579 69.7155 44.5552 70.6849 43.84 71.4C43.1248 72.1152 42.1554 72.5179 41.144 72.5201ZM18.16 66.6321C17.7866 66.6321 17.4284 66.7804 17.1644 67.0444C16.9003 67.3085 16.752 67.6666 16.752 68.0401V68.7041C16.752 69.0782 16.9001 69.4372 17.1639 69.7025C17.4277 69.9678 17.7858 70.1179 18.16 70.1201H41.144C41.33 70.1201 41.5141 70.0834 41.6859 70.0123C41.8577 69.9411 42.0138 69.8368 42.1453 69.7053C42.2768 69.5738 42.3811 69.4177 42.4522 69.2459C42.5234 69.0741 42.56 68.89 42.56 68.7041V68.0401C42.56 67.8545 42.5233 67.6707 42.4521 67.4994C42.3808 67.328 42.2764 67.1725 42.1448 67.0416C42.0132 66.9108 41.857 66.8072 41.6853 66.7369C41.5135 66.6666 41.3296 66.631 41.144 66.6321H18.16Z" fill="#FF8A00"/>
</g>
<defs>
<clipPath id="clip0_39_84">
<rect width="80" height="80" fill="white"/>
</clipPath>
</defs>
</svg>
